<svg xmlns="http://www.w3.org/2000/svg" width="50" height="50" viewBox="0 0 50 50">
    <path fill="#00E0A5" fill-rule="evenodd" stroke="#00E0A5" stroke-width=".8" d="M16.904 12.832c-.724.354-1.035 1.208-.697 1.901l6.863 14.071c.167.342-.224.627-.522.49l-6.867-3.622h-.001a1.5 1.5 0 0 0-1.976.586v.001c-.197.34-.21.666-.1 1.002.11.336.36.674.695.948v.001c2.65 2.16 5.296 4.325 7.943 6.49 1.826 1.492 3.016 2.783 4.533 3.277 1.517.494 3.46.268 6.943-1.431 2.355-1.149 3.65-2.812 4.2-4.572.55-1.76.339-3.628-.386-5.141a66.349 66.349 0 0 0-.747-1.533l-.002-.003-.002-.004-4.439-9.102c-.34-.696-1.205-.973-1.93-.619-.721.352-1.036 1.204-.697 1.9l3.136 6.43c.194.398-.464.708-.654.32l-3.958-8.116c-.338-.693-1.202-.974-1.926-.62-.72.35-1.035 1.208-.697 1.9l3.318 6.804c.215.44-.445.747-.654.319l-4.044-8.291c-.34-.697-1.201-.975-1.926-.621-.722.352-1.037 1.204-.697 1.9l3.346 6.86c.217.445-.45.738-.654.32L18.83 13.453c-.338-.694-1.202-.975-1.926-.621zm-.307-.628c1.082-.528 2.383-.106 2.888.93l1.444 2.961a2.228 2.228 0 0 1 1.074-1.126c1.081-.527 2.381-.108 2.888.93l.041.085a2.227 2.227 0 0 1 1.074-1.126c1.082-.528 2.383-.106 2.888.93l.137.282a2.228 2.228 0 0 1 1.075-1.126c1.08-.527 2.384-.11 2.89.93l4.44 9.101c.243.481.46.927.752 1.542a7.78 7.78 0 0 1 .42 5.642c-.607 1.944-2.066 3.786-4.584 5.014-3.56 1.737-5.745 2.043-7.497 1.473-1.753-.571-2.975-1.942-4.76-3.401-2.647-2.165-5.294-4.33-7.942-6.49h-.001c-.416-.342-.748-.77-.91-1.26a1.909 1.909 0 0 1 .162-1.567v-.001c.59-1.03 1.926-1.423 2.962-.88l5.91 3.118-6.396-13.114c-.505-1.036-.037-2.321 1.045-2.849v.002z"/>
</svg>
