<svg xmlns="http://www.w3.org/2000/svg" width="50" height="50" viewBox="0 0 50 50">
    <path fill="#00E1A3" fill-rule="evenodd" stroke="#00E0A5" stroke-width=".5" d="M40.63 34L39 32.574 41.873 29 45 31.192 40.63 34zm-3.569-.962l-3.305-2.599a.635.635 0 0 0-.893.104l-1.994 2.483-9.764-7.68a.633.633 0 0 0-.576-.11.655.655 0 0 0-.425.41l-3.413 9.707c-.175.405-.417.671-.742.815l-.61.117-7.087-.085a.655.655 0 0 0-.654.66V42H5V26.972h2.598v5.908c0 .361.285.656.639.66l5.841.071h.008a.647.647 0 0 0 .608-.436l3.387-9.627a.67.67 0 0 0-.214-.748l-5.23-4.112L21.223 8 43 26.13l-5.939 6.908zm9.646-2.44l-3.96-2.576 1.248-1.442a.649.649 0 0 0-.076-.926l-22.4-18.51a.628.628 0 0 0-.89.09l-9.253 11.434a.649.649 0 0 0 .104.92l5.291 4.131-3.018 8.516-4.662-.056v-5.77a.64.64 0 0 0-.635-.645H4.635a.64.64 0 0 0-.635.644v15.948a.64.64 0 0 0 .635.644h3.822a.64.64 0 0 0 .635-.644V37.35l6.384.076a.605.605 0 0 0 .124-.011l.71-.136a.61.61 0 0 0 .124-.035l.053-.02.149-.058-.003-.009c.566-.278.999-.755 1.3-1.452l3.076-8.678L30.4 34.36c.272.211.66.167.877-.102l1.96-2.421 3.231 2.523a.63.63 0 0 0 .864-.086l.739-.853 2.083 1.692a.628.628 0 0 0 .717.052l5.815-3.468a.648.648 0 0 0 .021-1.098z"/>
</svg>
