<?xml version="1.0" encoding="utf-8"?>
<!-- Generator: Adobe Illustrator 22.1.0, SVG Export Plug-In . SVG Version: 6.00 Build 0)  -->
<svg version="1.1" id="Layer_1" xmlns="http://www.w3.org/2000/svg" xmlns:xlink="http://www.w3.org/1999/xlink" x="0px" y="0px"
	 viewBox="0 0 476.8 125.5" style="enable-background:new 0 0 476.8 125.5;" xml:space="preserve">
<style type="text/css">
	.st0{fill:#078773;}
</style>
<g>
	<g>
		<g id="XMLID_40_">
			<path class="st0" d="M319.7,92c-2.5-2.9-3.8-7.2-3.8-12.9c0-2.8,0.4-6.3,1.1-10.4c1.3-8,4.1-13.9,8.2-17.8
				c4.2-3.8,10.3-5.7,18.2-5.7c4.2,0,8.1,0.5,11.9,1.6c3.8,1.1,6.8,2.5,9.1,4.2l-7.1,44.7h-12.2l-0.7-5c-1.6,1.4-3.8,2.6-6.7,3.8
				c-2.9,1.2-5.7,1.8-8.3,1.8C325.5,96.3,322.2,94.8,319.7,92z M341.1,84.3c1.5-0.6,3-1.5,4.7-2.5l3.8-24c-0.6-0.4-1.5-0.7-2.8-1
				c-1.3-0.3-2.7-0.5-4.1-0.5c-3.7,0-6.4,1.1-8.3,3.3c-1.9,2.2-3.2,5.6-3.9,10.1c-0.5,3.1-0.7,5.4-0.7,6.9c0,2.7,0.5,4.8,1.6,6.3
				c1.1,1.6,2.7,2.3,4.8,2.3C337.9,85.2,339.6,84.9,341.1,84.3z"/>
			<path class="st0" d="M370.8,92c-3.1-2.9-4.7-7.8-4.7-14.7c0-2.1,0.3-5,0.9-8.9c2.4-15.5,10.1-23.3,23.2-23.3
				c4.6,0,10.3,0.9,17.1,2.6l-1.3,8h-12.7c-3.8,0-6.7,1.2-8.7,3.6c-2,2.4-3.4,6.2-4.3,11.4c-0.4,2.6-0.6,4.4-0.6,5.3
				c0,3.5,0.7,6,2.2,7.5c1.5,1.5,3.7,2.3,6.8,2.3h13.3l-1.2,7.8c-5,1.7-10.5,2.6-16.6,2.6C378.4,96.3,373.9,94.8,370.8,92z"/>
			<path class="st0" d="M410.8,91.6c-3.1-3.1-4.7-7.8-4.7-13.9c0-2.4,0.3-5.6,0.9-9.6c1.2-8,4-13.9,8.3-17.5
				c4.3-3.7,10.3-5.5,17.8-5.5c12.7,0,19,5,19,14.9c0,6.5-1.9,10.9-5.8,13.3c-3.9,2.4-9.1,3.6-15.8,3.6c-4.4,0-8-0.3-10.7-1
				c-0.1,1.5-0.2,2.6-0.2,3.4c0,2.4,0.9,4.1,2.7,5.2c1.8,1.1,4.8,1.7,8.9,1.7h16.1l-1.3,8.1c-6.6,1.4-13.3,2.1-20.2,2.1
				C418.9,96.3,413.9,94.7,410.8,91.6z M436.5,67.4c1.9-1.2,2.9-3.2,2.9-5.9c0-3.9-2.4-5.9-7.1-5.9c-3.4,0-6,1.1-7.8,3.2
				c-1.8,2.1-3,5.4-3.7,9.8c2.4,0.4,4.4,0.6,6.2,0.6C431.4,69.2,434.5,68.6,436.5,67.4z"/>
		</g>
		<g id="XMLID_39_">
			<path class="st0" d="M35.7,25.7h26.7c6.5,0,11.1,1.2,13.7,3.7c2.6,2.5,4,5.9,4,10.5c0,1.7-0.1,3.3-0.4,4.8
				c-0.6,3.5-2,6.6-4.2,9.1c-2.2,2.5-5.1,4.2-8.5,5c3.3,0.9,5.8,2.4,7.5,4.6c1.7,2.2,2.6,5.2,2.6,9.1c0,1.5-0.2,3.4-0.6,5.8
				c-1,5.8-3.5,10-7.6,12.5c-4.1,2.6-9.8,3.9-17.2,3.9h-27L35.7,25.7z M53.7,82.3c3.3,0,5.7-0.7,7.3-2c1.6-1.3,2.6-3.5,3.1-6.6
				c0.1-0.6,0.2-1.5,0.2-2.6c0-4.3-2.6-6.4-7.9-6.4H43.4l-2.8,17.6H53.7z M57.9,54c4.5,0,7.3-2.3,8.2-6.9c0.3-1.6,0.5-2.7,0.5-3.5
				c0-1.9-0.6-3.3-1.7-4.2c-1.2-0.9-2.9-1.3-5.3-1.3H47.6L45,54H57.9z"/>
			<path class="st0" d="M90.7,44.6h13.8l-7.8,50H82.8L90.7,44.6z M92.3,36.7c-0.3-0.3-0.4-0.8-0.3-1.4l1.4-9.1c0.2-1.3,0.9-2,2.2-2
				h10.6c1.1,0,1.6,0.7,1.5,2l-1.4,9.1c-0.3,1.2-1,1.9-2.1,1.9H93.6C93,37.2,92.6,37.1,92.3,36.7z"/>
			<path class="st0" d="M118.1,23.5h13.8l-6.2,38.8c9.1-1.6,15-7.5,17.7-17.7h13.9c-3.2,11.3-8.5,19-16,23l13.1,27h-14.2l-10.5-22.8
				c-2.1,0.6-4,0.8-5.7,0.8l-3.4,22h-13.8L118.1,23.5z"/>
			<path class="st0" d="M163.6,90.5c-3.1-3.1-4.7-7.8-4.7-13.9c0-2.4,0.3-5.6,0.9-9.6c1.2-8,4-13.9,8.3-17.5
				c4.3-3.7,10.3-5.5,17.8-5.5c12.7,0,19,5,19,14.9c0,6.5-1.9,10.9-5.8,13.3c-3.9,2.4-9.1,3.6-15.8,3.6c-4.4,0-8-0.3-10.7-1
				c-0.1,1.5-0.2,2.6-0.2,3.4c0,2.4,0.9,4.1,2.7,5.2c1.8,1.1,4.8,1.7,8.9,1.7h16.1l-1.3,8.1c-6.6,1.4-13.3,2.1-20.2,2.1
				C171.8,95.2,166.7,93.6,163.6,90.5z M189.3,66.3c1.9-1.2,2.9-3.2,2.9-5.9c0-3.9-2.4-5.9-7.1-5.9c-3.4,0-6,1.1-7.8,3.2
				c-1.8,2.1-3,5.4-3.7,9.8c2.4,0.4,4.4,0.6,6.2,0.6C184.3,68.1,187.4,67.5,189.3,66.3z"/>
			<path class="st0" d="M207.3,93l1.3-8.1h21.8c3.5,0,5.4-1.2,5.9-3.6l0.3-2.1l0.1-1.1c0-1.9-1.3-2.8-3.9-2.8h-7.5
				c-4.4,0-7.8-0.8-10.4-2.5c-2.6-1.7-3.9-4.2-3.9-7.6c0-1.5,0.1-2.9,0.4-4.2l0.6-3.5c0.7-4.2,2.7-7.5,5.8-9.8
				c3.1-2.3,8.1-3.5,14.8-3.5c2.9,0,6.2,0.2,9.9,0.7c3.7,0.4,6.8,1,9.2,1.7l-1.4,8.1h-20.4c-1.8,0-3.1,0.3-3.9,0.9
				c-0.8,0.6-1.4,1.6-1.7,2.9l-0.3,1.4c-0.2,0.8-0.3,1.5-0.3,2c0,0.9,0.3,1.5,1,1.9c0.7,0.4,1.8,0.6,3.3,0.6h8.4
				c4,0,7.2,0.9,9.6,2.7c2.4,1.8,3.6,4.2,3.6,7.3c0,1.2-0.1,2.6-0.3,4l-0.7,4.4c-0.7,4.5-2.8,7.7-6.4,9.7c-3.6,2-8.6,3-14.9,3
				C218.9,95.2,212.2,94.5,207.3,93z"/>
		</g>
		<g id="XMLID_37_">
			<g id="XMLID_38_">
				<path class="st0" d="M258.9,109c-2.7-1.7-3.5-5.3-1.8-8l9.5-14.9c1-1.6,2.8-2.7,4.8-2.7c1.4-0.1,2.8,0.4,3.8,1.3
					c2.2,1.3,4.6,2.1,7.2,2.4c4.3,0.4,8.6-1,11.9-3.8c4.4-3.7,6.5-9.3,5.6-15.2c-0.7-4.1-3-7.9-6.4-10.4c-4.3-3.1-9.4-3.8-14-2.5
					c-2.6,0.7-5.5-0.1-7-2.3v0c-2.2-3.1-0.7-7.5,3-8.7c7-2.2,14.8-1.6,21.8,2.1c8.6,4.6,14.2,13.7,14.5,23.5
					c0.3,8.8-3.3,16.9-9.9,22.5c-5.7,4.8-13,7.1-20.4,6.5c-2.5-0.2-5-0.8-7.3-1.6c-0.3-0.1-0.6,0-0.7,0.2l-6.5,9.9
					C265.2,110,261.6,110.8,258.9,109L258.9,109z"/>
			</g>
		</g>
		<g id="XMLID_36_">
			<path class="st0" d="M296.3,94.8c-1.8,0-3.7-0.9-4.8-2.5c-1.9-2.6-1.2-6.3,1.4-8.2c2.7-1.9,4.8-4.6,5.9-7.7
				c3.1-8.5-1.2-17.9-9.7-21c-8.5-3.1-17.9,1.2-21,9.7c-0.7,1.9-1,3.8-1,5.8c0,3.2-2.6,5.9-5.8,5.9c0,0,0,0,0,0
				c-3.2,0-5.8-2.6-5.9-5.8c0-3.4,0.6-6.7,1.7-9.9c2.6-7,7.8-12.7,14.6-15.8c6.8-3.1,14.4-3.5,21.5-0.9c14.5,5.3,22,21.5,16.7,36.1
				c-2,5.4-5.5,10-10.1,13.2C298.6,94.5,297.5,94.8,296.3,94.8z"/>
		</g>
	</g>
</g>
</svg>
