<?xml version="1.0" encoding="UTF-8"?>
<svg width="599px" height="122px" viewBox="0 0 599 122" version="1.1" xmlns="http://www.w3.org/2000/svg" xmlns:xlink="http://www.w3.org/1999/xlink">
    <!-- Generator: Sketch 50.2 (55047) - http://www.bohemiancoding.com/sketch -->
    <title>bikespace logo</title>
    <desc>Created with Sketch.</desc>
    <defs></defs>
    <g id="assets-video" stroke="none" stroke-width="1" fill="none" fill-rule="evenodd">
        <g id="Artboard-3" fill="#FFFFFF" fill-rule="nonzero">
            <g id="bikespace-logo" transform="translate(-1.000000, 0.000000)">
                <g id="XMLID_40_" transform="translate(407.671329, 30.850575)">
                    <path d="M6.58438228,65.908046 C3.08205128,61.8413793 1.26083916,55.8114943 1.26083916,47.8183908 C1.26083916,43.891954 1.82121212,38.983908 2.8018648,33.2344828 C4.62307692,22.016092 8.54568765,13.7425287 14.2895105,8.27356322 C20.1734266,2.94482759 28.7191142,0.28045977 39.7864802,0.28045977 C45.6703963,0.28045977 51.1340326,0.981609195 56.4575758,2.52413793 C61.7811189,4.06666667 65.9839161,6.02988506 69.2060606,8.4137931 L59.2594406,71.0965517 L42.1680653,71.0965517 L41.1874126,64.0850575 C38.9459207,66.0482759 35.8638695,67.7310345 31.8011655,69.4137931 C27.7384615,71.0965517 23.8158508,71.937931 20.1734266,71.937931 C14.7097902,71.937931 10.0867133,69.8344828 6.58438228,65.908046 Z M36.5643357,55.1103448 C38.6657343,54.2689655 40.7671329,53.0068966 43.1487179,51.6045977 L48.4722611,17.9494253 C47.6317016,17.3885057 46.3708625,16.9678161 44.5496503,16.5471264 C42.7284382,16.1264368 40.7671329,15.845977 38.8058275,15.845977 C33.6223776,15.845977 29.8398601,17.3885057 27.1780886,20.4735632 C24.516317,23.5586207 22.6951049,28.3264368 21.7144522,34.6367816 C21.013986,38.983908 20.7337995,42.2091954 20.7337995,44.3126437 C20.7337995,48.0988506 21.4342657,51.0436782 22.9752914,53.1471264 C24.516317,55.3908046 26.7578089,56.3724138 29.6997669,56.3724138 C32.081352,56.3724138 34.4629371,55.9517241 36.5643357,55.1103448 Z" id="Shape"></path>
                    <path d="M78.172028,65.908046 C73.8291375,61.8413793 71.5876457,54.9701149 71.5876457,45.2942529 C71.5876457,42.3494253 72.0079254,38.2827586 72.8484848,32.8137931 C76.2107226,11.0781609 86.9979021,0.140229885 105.350117,0.140229885 C111.794406,0.140229885 119.77972,1.40229885 129.306061,3.7862069 L127.484848,15.0045977 L109.693007,15.0045977 C104.369464,15.0045977 100.30676,16.6873563 97.5048951,20.0528736 C94.7030303,23.4183908 92.7417249,28.7471264 91.4808858,36.0390805 C90.9205128,39.6850575 90.6403263,42.2091954 90.6403263,43.4712644 C90.6403263,48.3793103 91.620979,51.8850575 93.7223776,53.9885057 C95.8237762,56.091954 98.9058275,57.2137931 103.248718,57.2137931 L121.881119,57.2137931 L120.2,68.1517241 C113.195338,70.5356322 105.49021,71.7977011 96.9445221,71.7977011 C88.8191142,71.937931 82.5149184,69.8344828 78.172028,65.908046 Z" id="Shape"></path>
                    <path d="M134.209324,65.3471264 C129.866434,61 127.624942,54.4091954 127.624942,45.8551724 C127.624942,42.4896552 128.045221,38.0022989 128.885781,32.3931034 C130.5669,21.1747126 134.48951,12.9011494 140.51352,7.85287356 C146.537529,2.66436782 154.943124,0.140229885 165.450117,0.140229885 C183.241958,0.140229885 192.067832,7.15172414 192.067832,21.0344828 C192.067832,30.1494253 189.406061,36.3195402 183.942424,39.6850575 C178.478788,43.0505747 171.193939,44.7333333 161.807692,44.7333333 C155.64359,44.7333333 150.600233,44.3126437 146.817716,43.3310345 C146.677622,45.4344828 146.537529,46.9770115 146.537529,48.0988506 C146.537529,51.4643678 147.798368,53.8482759 150.320047,55.3908046 C152.841725,56.9333333 157.044522,57.7747126 162.788345,57.7747126 L185.343357,57.7747126 L183.522145,69.1333333 C174.275991,71.0965517 164.889744,72.0781609 155.22331,72.0781609 C145.556876,71.937931 138.552214,69.6942529 134.209324,65.3471264 Z M170.213287,31.4114943 C172.875058,29.7287356 174.275991,26.9241379 174.275991,23.137931 C174.275991,17.6689655 170.913753,14.8643678 164.329371,14.8643678 C159.5662,14.8643678 155.923776,16.4068966 153.402098,19.3517241 C150.88042,22.2965517 149.199301,26.9241379 148.218648,33.0942529 C151.580886,33.6551724 154.382751,33.9356322 156.904429,33.9356322 C163.068531,33.9356322 167.411422,33.0942529 170.213287,31.4114943 Z" id="Shape"></path>
                </g>
                <g id="XMLID_39_">
                    <path d="M16.3909091,3.7862069 L53.7958042,3.7862069 C62.9018648,3.7862069 69.3461538,5.46896552 72.9885781,8.97471264 C76.6310023,12.4804598 78.5923077,17.2482759 78.5923077,23.6988506 C78.5923077,26.0827586 78.4522145,28.3264368 78.0319347,30.4298851 C77.1913753,35.337931 75.2300699,39.6850575 72.1480186,43.1908046 C69.0659674,46.6965517 65.0032634,49.0804598 60.2400932,50.2022989 C64.8631702,51.4643678 68.3655012,53.5678161 70.7470862,56.6528736 C73.1286713,59.737931 74.3895105,63.9448276 74.3895105,69.4137931 C74.3895105,71.5172414 74.109324,74.1816092 73.548951,77.5471264 C72.1480186,85.6804598 68.6456876,91.5701149 62.9018648,95.0758621 C57.158042,98.7218391 49.1727273,100.544828 38.8058275,100.544828 L0.980652681,100.544828 L16.3909091,3.7862069 Z M41.6076923,83.1563218 C46.2307692,83.1563218 49.593007,82.1747126 51.8344988,80.3517241 C54.0759907,78.5287356 55.4769231,75.4436782 56.1773893,71.0965517 C56.3174825,70.2551724 56.4575758,68.9931034 56.4575758,67.4505747 C56.4575758,61.4206897 52.8151515,58.4758621 45.3902098,58.4758621 L27.1780886,58.4758621 L23.2554779,83.1563218 L41.6076923,83.1563218 Z M47.4916084,43.4712644 C53.7958042,43.4712644 57.7184149,40.245977 58.9792541,33.7954023 C59.3995338,31.5517241 59.6797203,30.0091954 59.6797203,28.8873563 C59.6797203,26.2229885 58.8391608,24.2597701 57.2981352,22.9977011 C55.6170163,21.7356322 53.2354312,21.1747126 49.8731935,21.1747126 L33.0620047,21.1747126 L29.4195804,43.4712644 L47.4916084,43.4712644 Z" id="Shape"></path>
                    <path d="M93.4421911,30.2896552 L112.775058,30.2896552 L101.847786,100.404598 L82.3748252,100.404598 L93.4421911,30.2896552 Z M95.683683,19.2114943 C95.2634033,18.7908046 95.12331,18.0896552 95.2634033,17.2482759 L97.2247086,4.48735632 C97.5048951,2.66436782 98.4855478,1.68275862 100.30676,1.68275862 L115.156643,1.68275862 C116.697669,1.68275862 117.398135,2.66436782 117.258042,4.48735632 L115.296737,17.2482759 C114.876457,18.9310345 113.895804,19.9126437 112.354779,19.9126437 L97.5048951,19.9126437 C96.6643357,19.9126437 96.1039627,19.7724138 95.683683,19.2114943 Z" id="Shape"></path>
                    <path d="M131.827739,0.701149425 L151.160606,0.701149425 L142.474825,55.1103448 C155.22331,52.8666667 163.488811,44.5931034 167.271329,30.2896552 L186.744289,30.2896552 C182.261305,46.1356322 174.836364,56.9333333 164.329371,62.5425287 L182.681585,100.404598 L162.788345,100.404598 L148.078555,68.4321839 C145.136597,69.2735632 142.474825,69.554023 140.09324,69.554023 L135.33007,100.404598 L115.997203,100.404598 L131.827739,0.701149425 Z" id="Shape"></path>
                    <path d="M195.570163,94.6551724 C191.227273,90.308046 188.985781,83.7172414 188.985781,75.1632184 C188.985781,71.7977011 189.406061,67.3103448 190.24662,61.7011494 C191.927739,50.4827586 195.85035,42.2091954 201.874359,37.1609195 C207.898368,31.9724138 216.303963,29.4482759 226.810956,29.4482759 C244.602797,29.4482759 253.428671,36.4597701 253.428671,50.3425287 C253.428671,59.4574713 250.7669,65.6275862 245.303263,68.9931034 C239.839627,72.3586207 232.554779,74.0413793 223.168531,74.0413793 C217.004429,74.0413793 211.961072,73.6206897 208.178555,72.6390805 C208.038462,74.7425287 207.898368,76.2850575 207.898368,77.4068966 C207.898368,80.7724138 209.159207,83.1563218 211.680886,84.6988506 C214.202564,86.2413793 218.405361,87.0827586 224.149184,87.0827586 L246.704196,87.0827586 L244.882984,98.4413793 C235.63683,100.404598 226.250583,101.386207 216.584149,101.386207 C207.057809,101.245977 199.913054,99.0022989 195.570163,94.6551724 Z M231.574126,60.7195402 C234.235897,59.0367816 235.63683,56.2321839 235.63683,52.445977 C235.63683,46.9770115 232.274592,44.1724138 225.69021,44.1724138 C220.92704,44.1724138 217.284615,45.7149425 214.762937,48.6597701 C212.241259,51.6045977 210.56014,56.2321839 209.579487,62.4022989 C212.941725,62.9632184 215.74359,63.2436782 218.265268,63.2436782 C224.569464,63.2436782 228.912354,62.4022989 231.574126,60.7195402 Z" id="Shape"></path>
                    <path d="M256.790909,98.1609195 L258.612121,86.8022989 L289.152448,86.8022989 C294.055711,86.8022989 296.717483,85.1195402 297.417949,81.754023 L297.838228,78.8091954 L297.978322,77.2666667 C297.978322,74.6022989 296.15711,73.3402299 292.514685,73.3402299 L282.007692,73.3402299 C275.84359,73.3402299 271.08042,72.2183908 267.437995,69.8344828 C263.795571,67.4505747 261.974359,63.9448276 261.974359,59.1770115 C261.974359,57.0735632 262.114452,55.1103448 262.534732,53.2873563 L263.375291,48.3793103 C264.355944,42.4896552 267.157809,37.862069 271.500699,34.6367816 C275.84359,31.4114943 282.848252,29.7287356 292.234499,29.7287356 C296.297203,29.7287356 300.92028,30.0091954 306.10373,30.7103448 C311.287179,31.2712644 315.63007,32.1126437 318.992308,33.0942529 L317.031002,44.4528736 L288.451981,44.4528736 C285.930303,44.4528736 284.109091,44.8735632 282.988345,45.7149425 C281.867599,46.5563218 281.02704,47.9586207 280.60676,49.7816092 L280.18648,51.7448276 C279.906294,52.8666667 279.7662,53.8482759 279.7662,54.5494253 C279.7662,55.8114943 280.18648,56.6528736 281.167133,57.2137931 C282.147786,57.7747126 283.688811,58.0551724 285.79021,58.0551724 L297.558042,58.0551724 C303.161772,58.0551724 307.644755,59.3172414 311.006993,61.8413793 C314.369231,64.3655172 316.05035,67.7310345 316.05035,72.0781609 C316.05035,73.7609195 315.910256,75.7241379 315.63007,77.6873563 L314.649417,83.8574713 C313.668765,90.1678161 310.726807,94.6551724 305.68345,97.4597701 C300.640093,100.264368 293.635431,101.666667 284.809557,101.666667 C273.041725,101.245977 263.655478,100.264368 256.790909,98.1609195 Z" id="Shape"></path>
                </g>
                <g id="XMLID_37_" transform="translate(325.016317, 26.643678)">
                    <g id="XMLID_38_">
                        <path d="M4.06270396,93.954023 C0.28018648,91.5701149 -0.840559441,86.5218391 1.54102564,82.7356322 L14.8498834,61.8413793 C16.2508159,59.5977011 18.7724942,58.0551724 21.574359,58.0551724 C23.5356643,57.9149425 25.4969697,58.616092 26.8979021,59.8781609 C29.9799534,61.7011494 33.3421911,62.8229885 36.9846154,63.2436782 C43.0086247,63.8045977 49.032634,61.8413793 53.655711,57.9149425 C59.8198135,52.7264368 62.7617716,44.8735632 61.5009324,36.6 C60.5202797,30.8505747 57.2981352,25.5218391 52.534965,22.016092 C46.5109557,17.6689655 39.3662005,16.6873563 32.9219114,18.5103448 C29.2794872,19.491954 25.2167832,18.3701149 23.1153846,15.2850575 C20.0333333,10.937931 22.1347319,4.76781609 27.3181818,3.08505747 C37.1247086,-4.6629367e-15 48.0519814,0.84137931 57.8585082,6.02988506 C69.9065268,12.4804598 77.7517483,25.2413793 78.172028,38.983908 C78.5923077,51.3241379 73.548951,62.6827586 64.3027972,70.5356322 C56.3174825,77.2666667 46.090676,80.491954 35.7237762,79.6505747 C32.2214452,79.3701149 28.7191142,78.5287356 25.4969697,77.4068966 C25.07669,77.2666667 24.6564103,77.4068966 24.516317,77.6873563 L15.4102564,91.5701149 C12.8885781,95.3563218 7.84522145,96.4781609 4.06270396,93.954023 Z" id="Shape"></path>
                    </g>
                </g>
                <g id="XMLID_36_" transform="translate(323.615385, 26.643678)">
                    <path d="M57.8585082,74.0413793 C55.3368298,74.0413793 52.6750583,72.7793103 51.1340326,70.5356322 C48.4722611,66.8896552 49.4529138,61.7011494 53.095338,59.0367816 C56.8778555,56.3724138 59.8198135,52.5862069 61.3608392,48.2390805 C65.7037296,36.3195402 59.6797203,23.137931 47.7717949,18.7908046 C35.8638695,14.4436782 22.6951049,20.4735632 18.3522145,32.3931034 C17.3715618,35.0574713 16.9512821,37.7218391 16.9512821,40.5264368 C16.9512821,45.0137931 13.3088578,48.8 8.82587413,48.8 C8.82587413,48.8 8.82587413,48.8 8.82587413,48.8 C4.34289044,48.8 0.7004662,45.154023 0.56037296,40.6666667 C0.56037296,35.8988506 1.4009324,31.2712644 2.94195804,26.783908 C6.58438228,16.9678161 13.8692308,8.97471264 23.3955711,4.62758621 C32.9219114,0.28045977 43.5689977,-0.28045977 53.5156177,3.36551724 C73.8291375,10.7977011 84.3361305,33.5149425 76.9111888,53.9885057 C74.109324,61.5609195 69.2060606,68.0114943 62.7617716,72.4988506 C61.0806527,73.6206897 59.539627,74.0413793 57.8585082,74.0413793 Z" id="Shape"></path>
                </g>
            </g>
        </g>
    </g>
</svg>