<?xml version="1.0" encoding="UTF-8"?>
<svg width="199px" height="41px" viewBox="0 0 199 41" version="1.1" xmlns="http://www.w3.org/2000/svg" xmlns:xlink="http://www.w3.org/1999/xlink">
    <!-- Generator: Sketch 49.2 (51160) - http://www.bohemiancoding.com/sketch -->
    <title>bikespacelogo</title>
    <desc>Created with Sketch.</desc>
    <defs>
        <polygon id="path-1" points="0 0.335634286 25.7213821 0.335634286 25.7213821 31.8784914 0 31.8784914"></polygon>
        <polygon id="path-3" points="0.240620128 0.440788896 26.5816249 0.440788896 26.5816249 31.372549 0.240620128 31.372549"></polygon>
    </defs>
    <g id="Definitivo" stroke="none" stroke-width="1" fill="none" fill-rule="evenodd">
        <g id="Artboard" transform="translate(-11.000000, -10.000000)">
            <g id="bikespacelogo" transform="translate(11.000000, 10.000000)">
                <path d="M146.950041,28.3639922 C147.661381,28.0821918 148.372722,27.6594912 149.178907,27.1898239 L150.980969,15.9178082 C150.696433,15.7299413 150.269629,15.5890411 149.653134,15.4481409 C149.036639,15.3072407 148.372722,15.2133072 147.709278,15.2133072 C145.954165,15.2133072 144.673753,15.7299413 143.773196,16.7632094 C142.871691,17.7964775 142.25567,19.3933464 141.923237,21.5068493 C141.686124,22.962818 141.591278,24.0430528 141.591278,24.7475538 C141.591278,26.0156556 141.828392,27.0019569 142.350515,27.7064579 C142.871691,28.4579256 143.630454,28.7866928 144.626804,28.7866928 C145.43299,28.7866928 146.238701,28.6457926 146.950041,28.3639922 M136.802062,31.9804305 C135.616495,30.6183953 135,28.5988258 135,25.9217221 C135,24.6066536 135.189216,22.962818 135.521175,21.037182 C136.13767,17.2798434 137.465505,14.5088063 139.410309,12.6771037 C141.402062,10.8923679 144.294371,10 148.041237,10 C150.032515,10 151.882,10.2348337 153.684062,10.7514677 C155.486124,11.2681018 156.908804,11.925636 158,12.7240705 L154.632515,33.7181996 L148.846948,33.7181996 L148.515464,31.369863 C147.756227,32.0273973 146.712928,32.590998 145.338144,33.1545988 C143.962412,33.7181996 142.634577,34 141.402062,34 C139.552103,34 137.987629,33.295499 136.802062,31.9804305" id="Fill-1" fill="#FFFFFF"></path>
                <path d="M161.167476,32.0253729 C159.737864,30.6634628 159,28.3623045 159,25.1218978 C159,24.1356871 159.138811,22.773777 159.415049,20.9417732 C160.522306,13.6630684 164.072816,10 170.114078,10 C172.235437,10 174.864078,10.4226617 178,11.2210228 L177.400485,14.978016 L171.543689,14.978016 C169.791262,14.978016 168.453883,15.541565 167.531553,16.668663 C166.609223,17.795761 165.963592,19.5803328 165.548544,22.0223784 C165.364539,23.2434012 165.271845,24.0887246 165.271845,24.5113864 C165.271845,26.1550709 165.595121,27.3291313 166.286869,28.0335676 C166.978617,28.7380038 167.992718,29.1137031 169.42233,29.1137031 L175.555825,29.1137031 L175.002427,32.7767715 C172.696602,33.5751326 170.160194,33.9977943 167.347087,33.9977943 C164.672791,34.0447567 162.597549,33.3403205 161.167476,32.0253729" id="Fill-3" fill="#FFFFFF"></path>
                <path d="M191.878261,20.4324841 C192.745652,19.8715375 193.202174,18.9358467 193.202174,17.6726642 C193.202174,15.8480672 192.106522,14.9123765 189.96087,14.9123765 C188.408696,14.9123765 187.221739,15.4265385 186.4,16.4090138 C185.578261,17.3914891 185.030435,18.9358467 184.71087,20.9938985 C185.806522,21.1815045 186.719565,21.2750736 187.541304,21.2750736 C189.55,21.2750736 190.965217,20.9938985 191.878261,20.4324841 M180.145652,31.7543422 C178.730435,30.3044894 178,28.1051482 178,25.2517593 C178,24.1284625 178.136957,22.6313573 178.41087,20.7599758 C178.958696,17.0176807 180.236957,14.2569251 182.2,12.5731496 C184.163043,10.8416538 186.902174,10 190.326087,10 C196.123913,10 199,12.3392269 199,16.9708961 C199,20.0118911 198.132609,22.0699429 196.352174,23.1927718 C194.571739,24.3160685 192.197826,24.8770151 189.13913,24.8770151 C187.130435,24.8770151 185.486957,24.7366615 184.254348,24.4091698 C184.208696,25.1109378 184.163043,25.6260356 184.163043,25.9998441 C184.163043,27.1231408 184.573913,27.9180101 185.395652,28.4331079 C186.217391,28.9472699 187.586957,29.228445 189.458696,29.228445 L196.808696,29.228445 L196.215217,33.0175247 C193.202174,33.6729761 190.143478,34 186.993478,34 C183.843478,33.9532155 181.56087,33.2051307 180.145652,31.7543422" id="Fill-5" fill="#FFFFFF"></path>
                <g id="Group-9" transform="translate(0.000000, 1.000000)">
                    <mask id="mask-2" fill="white">
                        <use xlink:href="#path-1"></use>
                    </mask>
                    <g id="Clip-8"></g>
                    <path d="M15.4142393,13.2727771 C17.503525,13.2727771 18.803525,12.2213486 19.2213821,10.1184914 C19.3606679,9.38706286 19.453525,8.88420571 19.453525,8.51849143 C19.453525,7.64992 19.1749536,7.00992 18.6642393,6.59849143 C18.1070964,6.18706286 17.3178107,6.00420571 16.203525,6.00420571 L10.6320964,6.00420571 L9.42495357,13.2727771 L15.4142393,13.2727771 Z M13.4642393,26.20992 C14.9963821,26.20992 16.1106679,25.88992 16.853525,25.2956343 C17.5963821,24.7013486 18.0606679,23.6956343 18.2928107,22.2784914 C18.3392393,22.0042057 18.3856679,21.5927771 18.3856679,21.08992 C18.3856679,19.1242057 17.178525,18.1642057 14.7178107,18.1642057 L8.68209643,18.1642057 L7.38209643,26.20992 L13.4642393,26.20992 Z M5.10709643,0.335634286 L17.503525,0.335634286 C20.5213821,0.335634286 22.6570964,0.884205714 23.8642393,2.02706286 C25.0713821,3.16992 25.7213821,4.72420571 25.7213821,6.82706286 C25.7213821,7.60420571 25.6749536,8.33563429 25.5356679,9.02134857 C25.2570964,10.6213486 24.6070964,12.0384914 23.5856679,13.1813486 C22.5642393,14.3242057 21.2178107,15.1013486 19.6392393,15.4670629 C21.1713821,15.8784914 22.3320964,16.5642057 23.1213821,17.56992 C23.9106679,18.5756343 24.328525,19.9470629 24.328525,21.72992 C24.328525,22.4156343 24.2356679,23.2837486 24.0499536,24.3813486 C23.5856679,27.0327771 22.4249536,28.9527771 20.5213821,30.0956343 C18.6178107,31.2837486 15.9713821,31.8784914 12.5356679,31.8784914 L-4.64285714e-05,31.8784914 L5.10709643,0.335634286 Z" id="Fill-7" fill="#FFFFFF" mask="url(#mask-2)"></path>
                </g>
                <path d="M31.1946814,6.859375 C31.0622178,6.71875 31.0180632,6.484375 31.0622178,6.203125 L31.6803813,1.9375 C31.7686904,1.328125 32.0777722,1 32.6517812,1 L37.3321626,1 C37.8178625,1 38.0386352,1.328125 37.9944807,1.9375 L37.3763171,6.203125 C37.2438535,6.765625 36.9347717,7.09375 36.4490718,7.09375 L31.7686904,7.09375 C31.5037632,7.09375 31.327145,7.046875 31.1946814,6.859375 Z M30.4882087,10.5625 L36.5815354,10.5625 L33.1374812,34 L27,34 L30.4882087,10.5625 Z" id="Fill-10" fill="#FFFFFF"></path>
                <path d="M43.1465347,0 L49.4316832,0 L46.6079208,18.0084388 C50.7524752,17.2658228 53.439604,14.5274262 54.6693069,9.79324895 L61,9.79324895 C59.5425743,15.0379747 57.1287129,18.6118143 53.7128713,20.4683544 L59.6792079,33 L53.2118812,33 L48.429703,22.4177215 C47.4732673,22.6957384 46.6079208,22.7890295 45.8336634,22.7890295 L44.2851485,33 L38,33 L43.1465347,0 Z" id="Fill-12" fill="#FFFFFF"></path>
                <path d="M76.8782609,19.4327485 C77.7456522,18.871345 78.2021739,17.9356725 78.2021739,16.6725146 C78.2021739,14.8479532 77.1065217,13.9122807 74.9608696,13.9122807 C73.4086957,13.9122807 72.2217391,14.4269006 71.4,15.4093567 C70.5782609,16.3918129 70.0304348,17.9356725 69.7108696,19.994152 C70.8065217,20.1812865 71.7195652,20.2748538 72.5413043,20.2748538 C74.5956522,20.2748538 76.0108696,19.994152 76.8782609,19.4327485 M65.1456522,30.754386 C63.7304348,29.3040936 63,27.1052632 63,24.251462 C63,23.128655 63.1369565,21.6315789 63.4108696,19.7602339 C63.9586957,16.0175439 65.2369565,13.2573099 67.2,11.5730994 C69.1630435,9.84210526 71.9021739,9 75.326087,9 C81.123913,9 84,11.3391813 84,15.9707602 C84,19.0116959 83.1326087,21.0701754 81.3521739,22.1929825 C79.5717391,23.3157895 77.1978261,23.877193 74.1391304,23.877193 C72.1304348,23.877193 70.4869565,23.7368421 69.2543478,23.4093567 C69.2086957,24.1111111 69.1630435,24.625731 69.1630435,25 C69.1630435,26.122807 69.573913,26.9181287 70.3956522,27.4327485 C71.2173913,27.9473684 72.5869565,28.2280702 74.4586957,28.2280702 L81.8086957,28.2280702 L81.2152174,32.0175439 C78.2021739,32.6725146 75.1434783,33 71.9934783,33 C68.8891304,32.9532164 66.5608696,32.2046784 65.1456522,30.754386" id="Fill-14" fill="#FFFFFF"></path>
                <path d="M85,31.8304094 L85.6148649,28.0404678 L95.9256757,28.0404678 C97.5810811,28.0404678 98.4797297,27.4795322 98.7162162,26.3567251 L98.8581081,25.374269 L98.9054054,24.8596491 C98.9054054,23.9707602 98.2905405,23.5497076 97.0608108,23.5497076 L93.5135135,23.5497076 C91.4324324,23.5497076 89.8243243,23.1754386 88.5945946,22.380117 C87.3648649,21.5847953 86.75,20.4152047 86.75,18.8245614 C86.75,18.122807 86.7972973,17.4678363 86.9391892,16.8596491 L87.222973,15.2222222 C87.5540541,13.2573099 88.5,11.7134503 89.9662162,10.6374269 C91.4324324,9.56140351 93.7972973,9 96.9662162,9 C98.3378378,9 99.8986486,9.09356725 101.648649,9.32748538 C103.398649,9.51461988 104.864865,9.79532164 106,10.122807 L105.337838,13.9122807 L95.6891892,13.9122807 C94.8378378,13.9122807 94.222973,14.0526316 93.8445946,14.3333333 C93.4662162,14.6140351 93.1824324,15.0818713 93.0405405,15.6900585 L92.8986486,16.3450292 C92.8040541,16.7192982 92.7567568,17.0467836 92.7567568,17.2807018 C92.7567568,17.7017544 92.8986486,17.9824561 93.2297297,18.1695906 C93.5608108,18.3567251 94.0810811,18.4498246 94.7905405,18.4498246 L98.7635135,18.4498246 C100.655878,18.4498246 102.168919,18.871345 103.304054,19.7134503 C104.439662,20.5550877 105.006757,21.6783626 105.006757,23.1281871 C105.006757,23.6900585 104.959459,24.3450292 104.864865,24.9995322 L104.533784,27.0584795 C104.203176,29.1637427 103.209459,30.6608187 101.506757,31.5964912 C99.8040541,32.5321637 97.4391892,33 94.4594595,33 C90.4864865,32.8596491 87.3175676,32.5321637 85,31.8304094" id="Fill-16" fill="#FFFFFF"></path>
                <g id="Group-20" transform="translate(107.000000, 9.000000)">
                    <mask id="mask-4" fill="white">
                        <use xlink:href="#path-3"></use>
                    </mask>
                    <g id="Clip-19"></g>
                    <path d="M1.51597895,30.9269666 C0.237031579,30.1426528 -0.141915789,28.4817532 0.662873684,27.2360784 L5.16287368,20.3617993 C5.63655789,19.6236217 6.48966316,19.1156632 7.43703158,19.1156632 C8.09971579,19.0699885 8.76334737,19.300669 9.23703158,19.7158939 C10.2791368,20.3156632 11.4155053,20.684752 12.6475579,20.8231603 C14.6844,21.0077047 16.7212421,20.3617993 18.2839263,19.0699885 C20.3686105,17.3629527 21.3628737,14.779331 20.9370316,12.057301 C20.6054526,10.1657209 19.5159789,8.41254902 17.9054526,7.25914648 C15.8686105,5.82892734 13.4523474,5.50597463 11.2738737,6.10574394 C10.0422947,6.42869666 8.66861053,6.05960784 7.95808421,5.04461361 C6.91550526,3.61439446 7.62603158,1.584406 9.37913684,1.03077278 C12.6949263,0.0157785467 16.3891895,0.292595156 19.7049789,1.99963091 C23.7791368,4.12189158 26.4317684,8.32027682 26.5734,12.8416148 C26.7155053,16.9015917 25.0107158,20.6386159 21.8844,23.2222376 C19.1844,25.4367705 15.7265053,26.4974394 12.2212421,26.2210842 C11.0370316,26.128812 9.85282105,25.8519954 8.76334737,25.4829066 C8.62124211,25.4367705 8.47866316,25.4829066 8.43176842,25.5747174 L5.35282105,30.1426528 C4.50018947,31.3883276 2.79445263,31.7574164 1.51597895,30.9269666" id="Fill-18" fill="#FFFFFF" mask="url(#mask-4)"></path>
                </g>
                <path d="M125.92096,33 C125.088232,33 124.209242,32.5855339 123.700353,31.8487053 C122.821363,30.6513588 123.145201,28.9474427 124.348493,28.0724587 C125.597121,27.1974748 126.568637,25.9540765 127.077526,24.5264711 C128.512131,20.6120691 126.522374,16.2832011 122.590049,14.8555956 C118.657724,13.4279902 114.309036,15.4082171 112.874894,19.3226191 C112.551518,20.197603 112.412267,21.072587 112.412267,21.9936227 C112.412267,23.4672799 111.209438,24.7106782 109.729034,24.7106782 C108.248629,24.7106782 107.0458,23.5133317 107,22.0396745 C107,20.4739137 107.277113,18.9542048 107.786002,17.4805475 C108.988831,14.2569224 111.394951,11.6319705 114.540349,10.2043651 C117.686209,8.77675967 121.20217,8.59255252 124.486818,9.789899 C131.194902,12.2306437 134.6646,19.6910334 132.213143,26.4145944 C131.28789,28.9013909 129.668697,31.0197731 127.540153,32.4934303 C126.985001,32.8618446 126.476112,33 125.92096,33" id="Fill-21" fill="#FFFFFF"></path>
            </g>
        </g>
    </g>
</svg>