<?xml version="1.0" encoding="UTF-8"?>
<svg width="149px" height="51px" viewBox="0 0 149 51" version="1.1" xmlns="http://www.w3.org/2000/svg" xmlns:xlink="http://www.w3.org/1999/xlink">
    <!-- Generator: sketchtool 49.3 (51167) - http://www.bohemiancoding.com/sketch -->
    <title>A12C18CE-3014-4BD9-A74F-2195803ACD8C</title>
    <desc>Created with sketchtool.</desc>
    <defs>
        <circle id="path-1" cx="25.2655035" cy="25.2655035" r="25.2655035"></circle>
    </defs>
    <g id="Page-1" stroke="none" stroke-width="1" fill="none" fill-rule="evenodd">
        <g id="Landing-Page-mobile-v2" transform="translate(-211.000000, -552.000000)">
            <g id="0.-Ajuntament-de-Barcelona" transform="translate(211.000000, 552.000000)">
                <rect id="Rectangle-7" fill="#000000" x="26.3640037" y="0" width="123.032017" height="50.531007"></rect>
                <g id="Captura-de-pantalla-2018-04-17-a-las-11.41.12">
                    <mask id="mask-2" fill="white">
                        <use xlink:href="#path-1"></use>
                    </mask>
                    <use id="Mask" fill="#CF122C" xlink:href="#path-1"></use>
                    <path d="M25.276961,23.7937987 L22.5468675,23.7937987 L22.5468675,19.1730943 L21.1789221,20.5218952 L21.1789221,23.7937987 L17.8812468,23.7937987 L16.5125766,25.1457862 L21.1789221,25.1457862 L21.1789221,28.5023732 L13.1170701,28.5023732 L12.922213,28.6973124 L13.1163455,28.8923312 L14.3507896,28.8923312 L14.3507896,30.11574 L15.7151117,31.4649392 L15.7151117,28.8923312 L17.0808831,28.8923312 L17.0808831,32.8154927 L18.4473792,34.1688344 L18.4473792,28.8923312 L19.8146,28.8923312 L19.8146,35.5165996 L21.1810961,36.8657987 L21.1810961,28.8923312 L22.5468675,28.8923312 L22.5468675,38.2163522 L23.912639,39.56826 L23.912639,28.8923312 L25.276961,28.8923312 L25.276961,40.9160252 L25.4718987,41.1067421 L25.6682052,40.9160252 L25.6682052,33.6009057 L28.4019221,33.6009057 L28.4019221,38.2220084 L29.7662442,36.8657987 L29.7662442,33.6009057 L33.0647247,33.6009057 L34.4289662,32.2532201 L29.7662442,32.2532201 L29.7662442,28.8923312 L37.8231039,28.8923312 L38.0237584,28.6917358 L37.8317195,28.5023732 L36.595826,28.5023732 L36.595826,27.2803983 L35.2286857,25.9298449 L35.2286857,28.5023732 L33.8642831,28.5023732 L33.8642831,24.5778574 L32.497787,23.2286583 L32.497787,28.5023732 L31.1305662,28.5023732 L31.1305662,21.8795388 L29.7662442,20.5275514 L29.7662442,28.5023732 L28.4019221,28.5023732 L28.4019221,19.1787505 L27.035426,17.829631 L27.035426,28.5023732 L25.6682052,28.5023732 L25.6682052,16.4776436 L25.4768104,16.2826247 L25.276961,16.4804319 L25.276961,23.7937987 Z M22.5468675,28.5023732 L25.276961,28.5023732 L25.276961,25.1457862 L22.5468675,25.1457862 L22.5468675,28.5023732 Z M25.6682052,32.2532201 L28.4019221,32.2532201 L28.4019221,28.8923312 L25.6682052,28.8923312 L25.6682052,32.2532201 Z M25.4690805,13.674805 C26.8262364,13.674805 28.1048857,14.003979 29.1894026,14.498457 L29.6676883,13.7807589 C28.4440338,13.20574 27.0132831,12.8582432 25.4797896,12.8582432 C23.9518519,12.8582432 22.5154649,13.1944277 21.2781221,13.7835472 L21.7586623,14.498457 C22.8430987,14.003979 24.1281896,13.674805 25.4690805,13.674805 Z M22.4169091,12.0600839 C22.2562727,12.2055514 22.2084442,12.4344277 22.2512805,12.687283 C22.4954961,12.7550776 22.7339143,12.7268763 22.893826,12.5855514 C23.0544623,12.4415178 23.1065584,12.2097736 23.0587299,11.9653627 C23.1237091,12.2083396 23.2643766,12.4004906 23.4721169,12.4626289 C23.6734156,12.5305031 23.9032987,12.4584067 24.0954182,12.2959706 C24.0368805,12.0515597 23.896213,11.8608428 23.6877481,11.7958365 C23.4856442,11.7294759 23.2607532,11.7987044 23.0679896,11.9597065 C23.2494,11.7859581 23.3407896,11.5698281 23.2957792,11.3621426 C23.2522182,11.154457 23.0787792,10.9948889 22.836013,10.9086918 C22.6517844,11.0866625 22.5618442,11.3027925 22.6025065,11.5091237 C22.6467922,11.7167296 22.8238545,11.8749434 23.0587299,11.9653627 C22.8153195,11.8933459 22.5811688,11.9201929 22.4169091,12.0600839 Z M20.8812416,12.0515597 C20.7926701,11.8551866 20.5891974,11.736566 20.3365273,11.6998407 C20.190787,11.9103145 20.1408649,12.1391908 20.2308052,12.3355639 C20.3207455,12.5305031 20.5249429,12.6533459 20.7791429,12.687283 C20.9190052,12.4739413 20.9697325,12.245065 20.8812416,12.0515597 Z M25.4768104,7.20596227 C25.7981636,7.20596227 26.0566312,6.94880503 26.0566312,6.63237736 C26.0566312,6.31451572 25.7981636,6.05735849 25.4768104,6.05735849 C25.1541688,6.05735849 24.8921584,6.31451572 24.8921584,6.63237736 C24.8921584,6.94880503 25.1541688,7.20596227 25.4768104,7.20596227 Z M24.838613,11.6800042 C24.6501169,11.7901803 24.5522857,12.0021677 24.5415766,12.2550231 C24.7679169,12.3750776 25.0049662,12.3948344 25.1934623,12.2888805 C25.3819584,12.1829266 25.4797896,11.9695849 25.4868753,11.7167296 C25.4946857,11.9682306 25.5961403,12.1829266 25.781013,12.2888805 C25.9680597,12.3948344 26.2043844,12.3750776 26.4292753,12.2550231 C26.4199351,12.0021677 26.3214597,11.7901803 26.132239,11.6800042 C25.9480909,11.5740503 25.7132156,11.5924528 25.4868753,11.7152956 C25.7039558,11.5811405 25.8417247,11.3904235 25.8417247,11.1770818 C25.8417247,10.965174 25.7039558,10.774457 25.4868753,10.6402222 C25.268426,10.774457 25.1306571,10.965174 25.1306571,11.1770818 C25.1306571,11.3904235 25.2669766,11.5811405 25.485426,11.7152956 C25.2577169,11.5924528 25.0228416,11.5740503 24.838613,11.6800042 Z M21.2810208,13.0884738 C21.4952026,13.1068763 21.7036675,12.9994885 21.860761,12.7974591 C21.7501273,12.5685828 21.5701662,12.4146709 21.3545351,12.3920461 C21.1418026,12.3694214 20.934787,12.4852537 20.7791429,12.687283 C20.8890519,12.9147254 21.0682883,13.068717 21.2810208,13.0884738 Z M20.5114156,10.941195 C20.287974,10.7589224 20.1530234,10.5172998 20.1530234,10.256 C20.1530234,9.69085954 20.7677091,9.23318658 21.5280545,9.23318658 C21.7093844,9.23318658 21.8800052,9.26003354 22.0392727,9.30663732 C22.0135065,9.41968134 22.0014286,9.53694759 22.0014286,9.65556813 C22.0014286,10.0285577 22.1320312,10.3746205 22.3547481,10.6685031 L22.9709636,10.0539706 C22.9016364,9.93391614 22.860974,9.79681342 22.860974,9.65556813 C22.860974,9.08907338 23.4756597,8.63418868 24.233187,8.63418868 C24.5415766,8.63418868 24.8264545,8.70907338 25.0585117,8.83757233 L25.0585117,10.0511027 L25.9166078,10.0511027 L25.9166078,8.81781551 C26.1386805,8.69919497 26.4106753,8.63418868 26.7077117,8.63418868 C27.4637896,8.63418868 28.0799247,9.08907338 28.0799247,9.65556813 C28.0799247,9.79681342 28.0406312,9.93391614 27.9685662,10.0539706 L28.5847013,10.6685031 C28.8074182,10.3746205 28.9352831,10.0285577 28.9352831,9.65556813 C28.9352831,9.53694759 28.9230442,9.41968134 28.8988078,9.30663732 C29.0551766,9.26003354 29.2300649,9.23318658 29.4114753,9.23318658 C30.1702909,9.23318658 30.7872312,9.69085954 30.7872312,10.256 C30.7872312,10.5172998 30.6515558,10.7589224 30.4266649,10.941195 L31.0320909,11.5415472 C31.412626,11.2067966 31.6425091,10.7532662 31.6425091,10.256 C31.6425091,9.22187421 30.6436649,8.38412159 29.4099455,8.38412159 C29.0851299,8.38412159 28.7824571,8.44203774 28.5018468,8.54520335 C28.1006182,8.08466247 27.4416468,7.78225577 26.704813,7.78225577 C26.2479455,7.78225577 25.8224,7.89816771 25.4690805,8.09589518 C25.1156,7.89816771 24.6901351,7.78225577 24.233187,7.78225577 C23.4964338,7.78225577 22.8430987,8.08466247 22.4340597,8.54520335 C22.1569922,8.44203774 21.8528701,8.38412159 21.5280545,8.38412159 C20.2957844,8.38412159 19.2962961,9.22187421 19.2962961,10.256 C19.2962961,10.7532662 19.5268234,11.2067966 19.9030909,11.5415472 L20.5114156,10.941195 Z M40.3826571,28.1506541 C40.0727377,28.1506541 39.8242545,28.3964193 39.8242545,28.6973124 C39.8242545,29.0039413 40.0727377,29.2482725 40.3826571,29.2482725 C40.6881481,29.2482725 40.9380805,29.0039413 40.9380805,28.6973124 C40.9380805,28.3964193 40.6881481,28.1506541 40.3826571,28.1506541 Z M25.4718987,42.8980797 C25.1634286,42.8980797 24.915026,43.1453585 24.915026,43.4504738 C24.915026,43.7541551 25.1634286,44 25.4718987,44 C25.781013,44 26.0323143,43.7541551 26.0323143,43.4504738 C26.0323143,43.1453585 25.781013,42.8980797 25.4718987,42.8980797 Z M10.5583221,28.1506541 C10.2499325,28.1506541 10,28.3949853 10,28.6973124 C10,29.0039413 10.2499325,29.2482725 10.5583221,29.2482725 C10.8638935,29.2482725 11.1122961,29.0039413 11.1122961,28.6973124 C11.1122961,28.3949853 10.8638935,28.1506541 10.5583221,28.1506541 Z M32.8633455,21.2438155 C28.2027169,16.6358574 25.4946857,15.145413 25.4868753,15.1426247 L25.4690805,15.1341803 L25.4483065,15.1426247 C25.4468571,15.145413 22.6603195,16.7163983 17.9390597,21.3808386 C13.2784312,25.9934172 11.7655506,28.671979 11.7655506,28.671979 L11.7534727,28.6931698 L11.7655506,28.7129266 C11.7655506,28.7129266 13.3591117,31.4748176 18.0775532,36.1438784 C22.7381818,40.7507212 25.4468571,42.2454675 25.4468571,42.2454675 L25.4690805,42.2595681 L25.4925922,42.2454675 C25.4925922,42.2454675 28.2833974,40.6716143 33.0003896,36.0067757 C37.6610987,31.3928428 39.1752675,28.7157149 39.1767169,28.7101384 L39.1875065,28.6917358 L39.1767169,28.673413 C39.1752675,28.6691111 37.5832364,25.9128763 32.8633455,21.2438155 Z M25.4690805,41.9643312 L12.0561455,28.6931698 L25.4690805,15.423761 L38.8875714,28.6917358 L25.4690805,41.9643312 Z M30.1432364,12.687283 C29.9875922,12.4852537 29.7762286,12.3694214 29.5620468,12.3920461 C29.350039,12.4146709 29.1715273,12.5685828 29.0579948,12.7974591 C29.2165377,12.9994885 29.4221039,13.1068763 29.6356416,13.0884738 C29.8519169,13.068717 30.0311532,12.9147254 30.1432364,12.687283 Z M30.6886753,12.3355639 C30.7772468,12.1391908 30.7293377,11.9103145 30.5836779,11.6998407 C30.3310078,11.736566 30.1274545,11.8551866 30.0390442,12.0515597 C29.9490234,12.245065 29.9954831,12.4739413 30.1432364,12.687283 C30.3966312,12.6533459 30.6015532,12.5305031 30.6886753,12.3355639 Z M27.2289143,11.7958365 C27.0268104,11.8608428 26.8812312,12.0515597 26.8212442,12.2959706 C27.0175506,12.4584067 27.2424416,12.5305031 27.4516312,12.4626289 C27.6530104,12.4004906 27.7950468,12.2083396 27.8579325,11.9653627 C27.8143714,12.2097736 27.8671922,12.4415178 28.0270234,12.5855514 C28.1841169,12.7268763 28.4225351,12.7550776 28.6668312,12.687283 C28.7132104,12.4344277 28.6596649,12.2055514 28.4990286,12.0600839 C28.3383117,11.9201929 28.1063351,11.8947002 27.8607506,11.9653627 C28.1048857,11.8749434 28.2726883,11.7167296 28.3162494,11.5091237 C28.3640779,11.3027925 28.271239,11.0866625 28.0856416,10.9086918 C27.8443247,10.9948889 27.6694364,11.154457 27.6229766,11.3621426 C27.5794961,11.5740503 27.6750727,11.7859581 27.8550338,11.9640084 C27.6615455,11.7987044 27.4330312,11.7294759 27.2289143,11.7958365 Z" id="CS5_escut_P186_U" fill="#FFFFFF" mask="url(#mask-2)"></path>
                </g>
                <text id="Ajuntament-de" font-family="HelveticaNeue-Medium, Helvetica Neue" font-size="10.9850015" font-weight="400" letter-spacing="-0.219700055" fill="#FFFFFF">
                    <tspan x="59.961631" y="19.7880012">Ajuntament d</tspan>
                    <tspan x="125.069735" y="19.7880012">e</tspan>
                </text>
                <text id="Barcelona" font-family="HelveticaNeue-Medium, Helvetica Neue" font-size="15.3790021" font-weight="400" fill="#FFFFFF">
                    <tspan x="58.4226321" y="34.7730027">Barcelona</tspan>
                </text>
            </g>
        </g>
    </g>
</svg>