<?xml version="1.0" encoding="UTF-8"?>
<svg width="158px" height="47px" viewBox="0 0 158 47" version="1.1" xmlns="http://www.w3.org/2000/svg" xmlns:xlink="http://www.w3.org/1999/xlink">
    <!-- Generator: Sketch 50.2 (55047) - http://www.bohemiancoding.com/sketch -->
    <title>button/market/playstore</title>
    <desc>Created with Sketch.</desc>
    <defs>
        <linearGradient x1="50%" y1="0%" x2="50%" y2="38.9125982%" id="linearGradient-1">
            <stop stop-color="#FBDA09" offset="0%"></stop>
            <stop stop-color="#FFBC00" offset="100%"></stop>
        </linearGradient>
        <path d="M8.24249959,1.92434255 C8.87112977,0.79119207 9.88958586,0.789804831 10.5190039,1.92434255 L19.5727632,18.2439118 C20.2014117,19.3770623 19.6635271,20.2956623 18.3713347,20.2956623 L0.390464765,20.2956623 C-0.901714325,20.2956623 -1.44039659,19.3784496 -0.810996817,18.2439118 L8.24249959,1.92434255 Z" id="path-2"></path>
        <linearGradient x1="0%" y1="58.4755255%" x2="69.3064856%" y2="39.0830098%" id="linearGradient-4">
            <stop stop-color="#01E2FF" offset="0%"></stop>
            <stop stop-color="#01C4FF" offset="100%"></stop>
        </linearGradient>
        <linearGradient x1="20.2810876%" y1="20.1019903%" x2="83.820166%" y2="83.6214476%" id="linearGradient-5">
            <stop stop-color="#28D781" offset="0%"></stop>
            <stop stop-color="#02F076" offset="100%"></stop>
        </linearGradient>
        <linearGradient x1="74.4881466%" y1="17.4301299%" x2="10.1079427%" y2="91.1838038%" id="linearGradient-6">
            <stop stop-color="#F2414E" offset="0%"></stop>
            <stop stop-color="#E02554" offset="100%"></stop>
        </linearGradient>
    </defs>
    <g id="Page-1" stroke="none" stroke-width="1" fill="none" fill-rule="evenodd">
        <g id="Landing-Page-mobile-v2" transform="translate(-101.000000, -352.000000)">
            <g id="Header" transform="translate(-180.000000, 0.000000)">
                <g id="Group-14" transform="translate(208.000000, 77.000000)">
                    <g id="Markets" transform="translate(73.000000, 217.000000)">
                        <g id="button/market/playstore" transform="translate(0.000000, 58.000000)">
                            <g id="Playstore">
                                <rect id="background" fill="#000000" x="0" y="0" width="158" height="46.5965261" rx="23.298263"></rect>
                                <g id="Group" transform="translate(31.121212, 11.969697)">
                                    <g id="get-it-on" transform="translate(26.211612, 0.478011)" fill="#FFFFFF">
                                        <path d="M24.5401027,5.45631641 C23.0704868,5.45631641 21.8791277,4.23487838 21.8791277,2.72815821 C21.8791277,1.22143803 23.0704868,0 24.5401027,0 C26.0097186,0 27.2010777,1.22143803 27.2010777,2.72815821 C27.2010777,4.23487838 26.0097186,5.45631641 24.5401027,5.45631641 Z M24.5401027,4.62271251 C25.5606693,4.62271251 26.388002,3.77449166 26.388002,2.72815821 C26.388002,1.68182475 25.5606693,0.833603896 24.5401027,0.833603896 C23.5195361,0.833603896 22.6922034,1.68182475 22.6922034,2.72815821 C22.6922034,3.77449166 23.5195361,4.62271251 24.5401027,4.62271251 Z" id="o"></path>
                                        <path d="M6.50460553,3.03128689 L6.50460553,4.69849469 L8.64816871,4.69849469 L8.64816871,5.30475207 L6.50460553,5.30475207 L5.69152984,5.30475207 L5.69152984,0.303128689 L5.69152984,0.227346517 L8.64816871,0.227346517 L8.64816871,0.833603896 L6.50460553,0.833603896 L6.50460553,2.42502952 L8.4264208,2.42502952 L8.4264208,3.03128689 L6.50460553,3.03128689 Z" id="e"></path>
                                        <path d="M11.5308916,0.833603896 L11.5308916,5.30475207 L10.7178159,5.30475207 L10.7178159,0.833603896 L9.4612444,0.833603896 L9.4612444,0.227346517 L12.7874631,0.227346517 L12.7874631,0.833603896 L11.5308916,0.833603896 Z" id="t"></path>
                                        <path d="M18.7746569,0.833603896 L18.7746569,5.30475207 L17.9615812,5.30475207 L17.9615812,0.833603896 L16.7050097,0.833603896 L16.7050097,0.227346517 L20.0312284,0.227346517 L20.0312284,0.833603896 L18.7746569,0.833603896 Z" id="t"></path>
                                        <rect id="i" x="15.1527742" y="0.227346517" width="1" height="5.07740555"></rect>
                                        <path d="M28.6793971,0.227346517 L28.827229,0.227346517 L31.0447082,3.94252131 L31.0447082,0.227346517 L31.8577839,0.227346517 L31.8577839,5.30475207 L31.0447082,5.30475207 L28.6793971,1.34189895 L28.6793971,5.30475207 L27.8663214,5.30475207 L27.8663214,0.227346517 L28.6793971,0.227346517 Z" id="n"></path>
                                        <g id="g" transform="translate(0.000000, 0.075782)">
                                            <polygon id="Rectangle-1" points="2.64495457 2.43792092 4.87112467 2.43792092 4.84908339 3.16026786 2.64495457 3.16026786"></polygon>
                                            <path d="M4.43305003,0.738309991 L3.92363997,1.26001668 C3.60590563,0.92731222 3.1546281,0.744920281 2.63393393,0.744920281 C1.59313668,0.744920281 0.749403796,1.60901999 0.749403796,2.67494101 C0.749403796,3.74086202 1.59313668,4.60496174 2.63393393,4.60496174 C3.67473118,4.60496174 4.41368185,3.98873596 4.41213207,2.67494101 C4.41389238,2.59374934 4.41204623,2.51471628 4.40675175,2.43792092 L5.05703036,2.43792092 C5.05710414,2.44685277 5.05714109,2.45580278 5.05714109,2.46477085 C5.30174773,4.30423368 4.07849929,5.3634172 2.61189264,5.34988202 C1.16938556,5.34776372 0,4.15227013 0,2.67494101 C0,1.19761188 1.16938417,0 2.61189264,0 C3.3658988,0 3.99975126,0.269789171 4.43305003,0.738309991 Z" id="Oval-1"></path>
                                        </g>
                                    </g>
                                    <g id="googleplay" transform="translate(25.842032, 9.420307)" fill="#FFFFFF">
                                        <g id="big-P" transform="translate(46.123566, 0.378911)">
                                            <path d="M0.36957986,2.66347189e-07 L4.56009019,0 C4.56009019,0 6.97245147,0.420798274 6.97245128,3.26089162 C6.97245109,6.10098496 4.56009019,6.52178324 4.56009019,6.52178324 L0.36957986,6.5217835 L0.36957986,2.66347189e-07 Z M1.18265555,1.57755087 L1.18265555,5.07740555 L4.0273787,5.07740555 C4.0273787,5.07740555 5.32194998,5.07740555 5.32194998,3.32747821 C5.32194998,1.57755087 4.0273787,1.57755087 4.0273787,1.57755087 L1.18265555,1.57755087 Z" id="Combined-Shape"></path>
                                            <rect id="Rectangle-6" x="0" y="0" width="1.47831944" height="10.6095041"></rect>
                                        </g>
                                        <rect id="y" x="53.9586595" y="0.378910862" width="1.47831944" height="10.6095041"></rect>
                                        <path d="M60.9162235,10.2298455 C60.5090422,10.5742821 59.8580615,10.898454 58.8299019,10.964289 C56.474444,11.1151135 56.4732167,8.91143568 56.4732167,8.76283172 C56.4732167,8.61422776 56.3570373,6.81710225 58.2307422,6.53143898 C59.5575096,6.32916128 60.4867685,6.66619481 60.9162235,6.88019146 L60.9162235,6.5684656 C60.8109093,6.15561736 60.4840934,5.39703758 59.5043129,5.39703758 C58.1582403,5.39703758 57.8609819,6.14316635 57.8609819,6.14316635 L56.6296024,5.39703758 C56.6296024,5.39703758 57.3186601,3.94067296 59.3862206,3.94067296 C61.9570316,3.94067297 62.3946963,5.75864028 62.3946963,6.37092916 C62.3946963,6.37390949 62.394645,6.37687055 62.3945429,6.37981245 L62.3945429,10.9850107 L60.9162235,10.9850107 L60.9162235,10.2298455 Z M60.8106189,7.95735012 C60.8106189,7.95735012 57.9626163,7.17033307 57.8636166,8.81067662 C57.7646168,10.4510202 60.5958729,9.66337408 60.8488401,8.50055436 C60.8488401,8.13078323 60.8106189,7.95735012 60.8106189,7.95735012 Z" id="a"></path>
                                        <path d="M65.1685087,10.585892 L62.5329122,4.16801948 L64.0112317,4.16801948 L65.9076684,8.7859833 L67.7890308,4.20472647 L69.2673502,4.20472647 L65.2678032,13.9439197 L63.7894838,13.9439197 L65.1685087,10.585892 Z" id="y"></path>
                                        <path d="M42.8140045,6.6480408 L38.1385262,8.62909993 C38.1385262,8.62909993 38.4404858,9.72482063 39.8462019,9.73216461 C40.94693,9.73791522 41.5682974,8.73189333 41.5682974,8.73189333 L42.7545289,9.55552722 C42.7545289,9.55552722 41.7973051,11.1427364 39.8368583,11.1427364 C37.4277396,11.1427364 36.3666582,8.98297208 36.3666582,7.58034987 C36.3666582,6.22895956 37.2088839,3.94067296 39.6873609,3.94067296 C42.1658379,3.94067296 42.8140045,6.6480408 42.8140045,6.6480408 Z M41.0350839,6.08683567 C41.0350839,6.08683567 40.4468438,5.16924657 39.5446915,5.33847028 C37.6363532,5.69643212 37.8765014,7.40858333 37.8765014,7.40858333 L41.0350839,6.08683567 Z" id="e"></path>
                                        <rect id="i" x="34.149179" y="0.378910862" width="1.56397314" height="10.5872153"></rect>
                                        <path d="M31.6463765,4.17076756 L33.0921173,4.18357253 L33.0921173,10.8637808 C33.0921173,12.5705557 32.1009781,14.3722203 29.7675963,14.3722203 C27.4342145,14.3722203 26.680618,12.2526176 26.680618,12.2526176 L28.008396,11.6801084 C28.008396,11.6801084 28.4133598,12.9864181 29.8365951,12.9864164 C31.4573485,12.9864144 31.6465562,11.4746594 31.6465562,10.9571813 L31.6465562,10.232224 C31.6465562,10.232224 31.0857611,11.1320894 29.6928476,11.1320913 C28.182645,11.1320935 26.388002,9.80551879 26.388002,7.54397197 C26.388002,5.28242515 28.077889,3.98884574 29.7103219,3.94179145 C31.0178856,3.9041014 31.6463765,4.83147041 31.6463765,4.83147041 L31.6463765,4.17076756 Z M29.8162907,9.77459346 C30.8705842,9.77459346 31.725258,8.78444807 31.725258,7.56304183 C31.725258,6.34163559 30.8705842,5.35149019 29.8162907,5.35149019 C28.7619973,5.35149019 27.9073235,6.34163559 27.9073235,7.56304183 C27.9073235,8.78444807 28.7619973,9.77459346 29.8162907,9.77459346 Z" id="g"></path>
                                        <path d="M22.2196805,11.1399793 C20.2762238,11.1399793 18.7007409,9.52835971 18.7007409,7.54032615 C18.7007409,5.55229259 20.2762238,3.94067296 22.2196805,3.94067296 C24.1631371,3.94067296 25.73862,5.55229259 25.73862,7.54032615 C25.73862,9.52835971 24.1631371,11.1399793 22.2196805,11.1399793 Z M22.1966809,9.72835064 C23.2890813,9.72835064 24.1746469,8.74873871 24.1746469,7.54032615 C24.1746469,6.33191359 23.2890813,5.35230166 22.1966809,5.35230166 C21.1042804,5.35230166 20.2187148,6.33191359 20.2187148,7.54032615 C20.2187148,8.74873871 21.1042804,9.72835064 22.1966809,9.72835064 Z" id="o"></path>
                                        <path d="M14.6063354,11.1399793 C12.6628787,11.1399793 11.0873958,9.52835971 11.0873958,7.54032615 C11.0873958,5.55229259 12.6628787,3.94067296 14.6063354,3.94067296 C16.549792,3.94067296 18.1252749,5.55229259 18.1252749,7.54032615 C18.1252749,9.52835971 16.549792,11.1399793 14.6063354,11.1399793 Z M14.5833357,9.72835064 C15.6757362,9.72835064 16.5613018,8.74873871 16.5613018,7.54032615 C16.5613018,6.33191359 15.6757362,5.35230166 14.5833357,5.35230166 C13.4909353,5.35230166 12.6053697,6.33191359 12.6053697,7.54032615 C12.6053697,8.74873871 13.4909353,9.72835064 14.5833357,9.72835064 Z" id="o"></path>
                                        <g id="big-g">
                                            <polygon id="Rectangle-1" points="5.5199052 5.08186332 10.1658254 5.08186332 10.1198262 6.5876006 5.5199052 6.5876006"></polygon>
                                            <path d="M9.25158267,1.53901238 L8.18846603,2.62651364 C7.52536827,1.93298885 6.5835717,1.55279157 5.49690559,1.55279157 C3.32480698,1.55279157 1.56397314,3.35401351 1.56397314,5.57593337 C1.56397314,7.79785323 3.32480698,9.59907517 5.49690559,9.59907517 C7.66900421,9.59907517 9.21116212,8.31454819 9.2079278,5.57593337 C9.21160149,5.40668876 9.20774866,5.24194379 9.1966993,5.08186332 L10.5538025,5.08186332 C10.5539565,5.10048183 10.5540336,5.1191382 10.5540336,5.1378322 C11.064517,8.97220542 8.51165069,11.1800809 5.45090638,11.1518667 C2.44045682,11.1474511 0,8.65543633 0,5.57593337 C0,2.4964304 2.44045392,0 5.45090638,0 C7.02448445,0 8.34730697,0.562377428 9.25158267,1.53901238 Z" id="Oval-1"></path>
                                        </g>
                                    </g>
                                    <g id="logo_play" transform="translate(0.562770, 0.781139)">
                                        <mask id="mask-3" fill="white">
                                            <use xlink:href="#path-2"></use>
                                        </mask>
                                        <use id="yellow" fill="url(#linearGradient-1)" transform="translate(9.380596, 10.693256) rotate(-270.000000) translate(-9.380596, -10.693256) " xlink:href="#path-2"></use>
                                        <polygon id="blue" fill="url(#linearGradient-4)" mask="url(#mask-3)" points="2.77555756e-17 -0.00747296454 10.3324804 10.5213498 -0.133459394 21.4663233"></polygon>
                                        <polygon id="green" fill="url(#linearGradient-5)" mask="url(#mask-3)" points="-2.12474199 -2.17498288 10.3312542 10.5244295 14.034567 6.90233335"></polygon>
                                        <polygon id="red" fill="url(#linearGradient-6)" mask="url(#mask-3)" points="10.332951 10.5220066 16.0023516 16.3807741 -0.934443892 22.2395415"></polygon>
                                    </g>
                                </g>
                            </g>
                        </g>
                    </g>
                </g>
            </g>
        </g>
    </g>
</svg>