<svg xmlns="http://www.w3.org/2000/svg" xmlns:xlink="http://www.w3.org/1999/xlink" width="50" height="50" viewBox="0 0 50 50">
    <defs>
        <path id="a" d="M11.857 23.405c-.004-6.38 5.164-11.554 11.544-11.558 6.38-.004 11.555 5.164 11.559 11.544a11.55 11.55 0 0 1-3.332 8.123l-.06.051-.051.06c-4.537 4.481-11.849 4.435-16.329-.103a11.543 11.543 0 0 1-3.331-8.117M23.409 10C16.005 9.999 10.003 15.999 10 23.401c-.001 7.404 5.999 13.407 13.401 13.41 3.24 0 6.37-1.172 8.811-3.3l6.145 6.153a.927.927 0 1 0 1.31-1.31l-6.153-6.15c4.866-5.574 4.29-14.035-1.284-18.9A13.397 13.397 0 0 0 23.409 10"/>
    </defs>
    <use fill="#00E0A5" fill-rule="evenodd" xlink:href="#a"/>
</svg>
