<?xml version="1.0" encoding="UTF-8"?>
<svg width="15px" height="20px" viewBox="0 0 15 20" version="1.1" xmlns="http://www.w3.org/2000/svg" xmlns:xlink="http://www.w3.org/1999/xlink">
    <!-- Generator: Sketch 50.2 (55047) - http://www.bohemiancoding.com/sketch -->
    <title>ic_phone</title>
    <desc>Created with Sketch.</desc>
    <defs></defs>
    <g id="Symbols" stroke="none" stroke-width="1" fill="none" fill-rule="evenodd">
        <g id="icon/ic_phone" transform="translate(-3.000000, 0.000000)" fill="#000000" fill-rule="nonzero">
            <path d="M14.9684243,19.6569191 C13.8233434,20.2770413 12.2702518,20.0441437 11.4942126,19.0584031 C7.53332855,13.930948 5.98182905,10.9659902 3.88009592,4.69733703 C3.4768011,3.45520889 4.04335331,1.86604218 5.13459404,1.19620854 C5.89350671,0.75795373 6.25725362,0.53467585 6.98474744,0.088120092 C7.33949687,-0.102048185 7.81077942,0.0224660481 8.01257156,0.395161007 C8.94084438,2.059884 9.38927138,2.88809502 10.3175442,4.552818 C10.5193363,4.92551296 10.3439577,5.44696565 9.89937816,5.71986083 C9.01021904,6.26565121 8.56563948,6.53854639 7.67648036,7.08433676 C9.12472586,10.0575013 9.9094731,11.5068706 11.6002165,14.3311832 C12.529792,13.7605842 12.9743715,13.487689 13.903947,12.91709 C14.357524,12.6110852 14.9006417,12.7190917 15.1024339,13.0917867 C16.0307067,14.7565096 16.4791337,15.5847207 17.4074065,17.2494437 C17.6091987,17.6221386 17.4742364,18.1187826 17.0700731,18.3668692 C16.302163,18.8382336 15.8979997,19.0863201 15.0896733,19.5824932 C15.0492569,19.6073018 15.0088406,19.6321105 14.9684243,19.6569191 Z" id="ic_phone"></path>
        </g>
    </g>
</svg>