<svg xmlns="http://www.w3.org/2000/svg" width="50" height="50" viewBox="0 0 50 50">
    <path fill="#00E0A5" fill-rule="nonzero" stroke="#00E0A5" stroke-width=".2" d="M27.845 31.52c0-1.732-1.4-3.153-3.106-3.153-1.705 0-3.105 1.421-3.105 3.154 0 1.421.962 2.665 2.23 3.02v2.888c0 .311.394.578.875.578.482 0 .875-.267.875-.578v-2.887c1.312-.4 2.23-1.6 2.23-3.021zm8.747-10.705a2.89 2.89 0 0 1 2.887 2.976v18.125c0 1.6-1.268 2.932-2.887 2.932H12.887c-1.575 0-2.887-1.288-2.887-2.932v-18.17c0-1.598 1.268-2.931 2.887-2.931h2.493v-6.308C15.38 9.265 19.578 5 24.74 5c5.16 0 9.36 4.265 9.36 9.507v6.308h2.492zM17.13 14.507v6.308h15.22v-6.308c0-4.265-3.41-7.73-7.61-7.73-4.198 0-7.61 3.465-7.61 7.73zm7.61 18.391c-.743 0-1.355-.622-1.355-1.377s.612-1.377 1.355-1.377c.744 0 1.356.622 1.356 1.377s-.612 1.377-1.356 1.377zm13.034 9.062h-.044V23.791c0-.622-.48-1.155-1.137-1.155H12.887c-.613 0-1.138.489-1.138 1.155v18.17c0 .621.482 1.154 1.138 1.154h23.749c.612 0 1.137-.488 1.137-1.155z"/>
</svg>
