<svg xmlns="http://www.w3.org/2000/svg" width="50" height="50" viewBox="0 0 50 50">
    <path fill="#00E1A3" fill-rule="evenodd" stroke="#00E0A5" stroke-width=".2" d="M22.71 28.524l-5.446-5.4L16 24.378 22.68 31 34 20.285 32.762 19 22.71 28.524zm4.12 14.566l-2.131.91-1.798-.792C15.066 39.766 9.997 31.945 10 23.301v-9.067L24.789 6 40 14.239v8.834c.013 8.755-5.184 16.657-13.17 20.022v-.005zM42 23.121v-9.91L24.773 4 8 13.215v10.133a23.487 23.487 0 0 0 14.143 21.548L24.682 46l2.87-1.2A23.438 23.438 0 0 0 42 23.121z"/>
</svg>
