<?xml version="1.0" encoding="UTF-8"?>
<svg width="158px" height="47px" viewBox="0 0 158 47" version="1.1" xmlns="http://www.w3.org/2000/svg" xmlns:xlink="http://www.w3.org/1999/xlink">
    <!-- Generator: Sketch 50.2 (55047) - http://www.bohemiancoding.com/sketch -->
    <title>button/market/ios</title>
    <desc>Created with Sketch.</desc>
    <defs></defs>
    <g id="Page-1" stroke="none" stroke-width="1" fill="none" fill-rule="evenodd">
        <g id="Landing-Page-mobile-v2" transform="translate(-101.000000, -294.000000)">
            <g id="Header" transform="translate(-180.000000, 0.000000)">
                <g id="Group-14" transform="translate(208.000000, 77.000000)">
                    <g id="Markets" transform="translate(73.000000, 217.000000)">
                        <g id="button/market/ios">
                            <g id="Appstore">
                                <rect id="backfround-copy" fill="#000000" x="0" y="0" width="158" height="46.6818182" rx="23.3409091"></rect>
                                <g id="Group" transform="translate(33.515152, 11.969697)" fill="#FFFFFF">
                                    <path d="M33.235685,20.5971872 L35.0945798,20.5971872 L31.0253185,9.54474722 L29.1429923,9.54474722 L25.073731,20.5971872 L26.8701419,20.5971872 L27.9089361,17.6636567 L32.2047014,17.6636567 L33.235685,20.5971872 Z M29.9943349,11.5514965 L30.1271131,11.5514965 L31.7595039,16.2236992 L28.3541336,16.2236992 L29.9943349,11.5514965 Z M40.0234702,12.1182883 C38.8675189,12.1182883 37.8677771,12.6850801 37.3522853,13.6348393 L37.2273176,13.6348393 L37.2273176,12.2561566 L35.6105477,12.2561566 L35.6105477,23.3009372 L37.2898014,23.3009372 L37.2898014,19.3333947 L37.4225796,19.3333947 C37.8677771,20.2142197 38.8284664,20.7350554 40.0390912,20.7350554 C42.1869738,20.7350554 43.5538082,19.0729768 43.5538082,16.4228422 C43.5538082,13.7727076 42.1869738,12.1182883 40.0234702,12.1182883 L40.0234702,12.1182883 Z M39.5470308,19.2568012 C38.141144,19.2568012 37.2585595,18.1691737 37.2585595,16.4305016 C37.2585595,14.6841701 38.141144,13.5965426 39.5548413,13.5965426 C40.9763491,13.5965426 41.8276917,14.661192 41.8276917,16.4228422 C41.8276917,18.1921517 40.9763491,19.2568012 39.5470308,19.2568012 L39.5470308,19.2568012 Z M48.7326341,12.1182883 C47.5766827,12.1182883 46.576941,12.6850801 46.0614492,13.6348393 L45.9364814,13.6348393 L45.9364814,12.2561566 L44.3197116,12.2561566 L44.3197116,23.3009372 L45.9989653,23.3009372 L45.9989653,19.3333947 L46.1317435,19.3333947 C46.576941,20.2142197 47.5376303,20.7350554 48.7482551,20.7350554 C50.8961377,20.7350554 52.2629721,19.0729768 52.2629721,16.4228422 C52.2629721,13.7727076 50.8961377,12.1182883 48.7326341,12.1182883 L48.7326341,12.1182883 Z M48.2561947,19.2568012 C46.8503079,19.2568012 45.9677234,18.1691737 45.9677234,16.4305016 C45.9677234,14.6841701 46.8503079,13.5965426 48.2640052,13.5965426 C49.685513,13.5965426 50.5368555,14.661192 50.5368555,16.4228422 C50.5368555,18.1921517 49.685513,19.2568012 48.2561947,19.2568012 L48.2561947,19.2568012 Z M55.8176938,17.6253599 C55.9426615,19.6014719 57.6219152,20.8652644 60.1212695,20.8652644 C62.7924545,20.8652644 64.4638977,19.5401971 64.4638977,17.4262169 C64.4638977,15.7641382 63.5110188,14.8450164 61.1991161,14.3165214 L59.9572494,14.0178068 C58.4888787,13.6807954 57.8952821,13.2288939 57.8952821,12.439981 C57.8952821,11.4442657 58.816919,10.793221 60.1993743,10.793221 C61.5115354,10.793221 62.4175513,11.428947 62.5815714,12.4476403 L64.2842566,12.4476403 C64.1827203,10.5864186 62.5112771,9.27667002 60.2228058,9.27667002 C57.7625039,9.27667002 56.1223026,10.5864186 56.1223026,12.5548712 C56.1223026,14.1786531 57.05175,15.143731 59.0902858,15.6109513 L60.5430356,15.955622 C62.0348377,16.3002926 62.6909182,16.8058096 62.6909182,17.648338 C62.6909182,18.6287346 61.6599345,19.341054 60.2540477,19.341054 C58.7466246,19.341054 57.70002,18.6746907 57.5516208,17.6253599 L55.8176938,17.6253599 Z M65.909313,10.2340886 L65.909313,12.2944533 L64.5112367,12.2944533 L64.5112367,13.6807954 L65.909313,13.6807954 L65.909313,18.3912948 C65.909313,19.999758 66.6513088,20.6431433 68.5180141,20.6431433 C68.8460543,20.6431433 69.1506632,20.6048465 69.4162196,20.5588904 L69.4162196,19.187867 C69.1819051,19.2108451 69.0491269,19.2261638 68.791381,19.2261638 C67.9556594,19.2261638 67.5885667,18.8431964 67.5885667,17.9700306 L67.5885667,13.6807954 L69.4943244,13.6807954 L69.4943244,12.2944533 L67.5885667,12.2944533 L67.5885667,10.2340886 L65.909313,10.2340886 Z M73.6577875,19.2950979 C72.1972274,19.2950979 71.3771267,18.2457672 71.3771267,16.4228422 C71.3771267,14.615236 72.1972274,13.5582459 73.6577875,13.5582459 C75.1105373,13.5582459 75.9384484,14.615236 75.9384484,16.4228422 C75.9384484,18.2381078 75.1105373,19.2950979 73.6577875,19.2950979 L73.6577875,19.2950979 Z M73.6577875,20.7580335 C76.1415209,20.7580335 77.664565,19.1265922 77.664565,16.4228422 C77.664565,13.7344109 76.1337104,12.0953103 73.6577875,12.0953103 C71.1740542,12.0953103 69.6431996,13.7344109 69.6431996,16.4228422 C69.6431996,19.1265922 71.1662437,20.7580335 73.6577875,20.7580335 L73.6577875,20.7580335 Z M78.4304683,20.5971872 L80.109722,20.5971872 L80.109722,15.6722261 C80.109722,14.5003457 81.0079275,13.7114328 82.2732256,13.7114328 C82.554403,13.7114328 83.0698948,13.7650483 83.202673,13.8110044 L83.202673,12.1872225 C83.0230319,12.1412664 82.7028022,12.1182883 82.4606772,12.1182883 C81.3515887,12.1182883 80.4143308,12.7157175 80.1722059,13.5352678 L80.0472382,13.5352678 L80.0472382,12.2561566 L78.4304683,12.2561566 L78.4304683,20.5971872 Z M86.9834226,13.4969711 C88.2252892,13.4969711 89.0375794,14.3471588 89.0766318,15.6569074 L84.7808665,15.6569074 C84.8745923,14.3548181 85.7415559,13.4969711 86.9834226,13.4969711 L86.9834226,13.4969711 Z M89.0688213,18.3453387 C88.756402,18.9963833 88.0612691,19.3563727 87.0459064,19.3563727 C85.7025035,19.3563727 84.8355399,18.4295915 84.7808665,16.966656 L84.7808665,16.8747438 L90.7871274,16.8747438 L90.7871274,16.3002926 C90.7871274,13.6807954 89.3578092,12.0953103 86.991233,12.0953103 C84.593415,12.0953103 83.0703709,13.7880263 83.0703709,16.4534796 C83.0703709,19.1189329 84.562173,20.7580335 86.9990435,20.7580335 C88.9438536,20.7580335 90.3028775,19.8389117 90.6855912,18.3453387 L89.0688213,18.3453387 Z" id="App-Store"></path>
                                    <path d="M26.6474316,0.917621753 L26.6474316,6.18068839 L28.5851751,6.18068839 C30.1844643,6.18068839 31.1105644,5.21415155 31.1105644,3.53274218 C31.1105644,1.87686397 30.1770258,0.917621753 28.5851751,0.917621753 L26.6474316,0.917621753 Z M27.4805497,1.66167275 L28.4921931,1.66167275 C29.6042571,1.66167275 30.2625691,2.35466143 30.2625691,3.54368411 C30.2625691,4.75094333 29.6154149,5.43663739 28.4921931,5.43663739 L27.4805497,5.43663739 L27.4805497,1.66167275 Z M34.0420987,5.56064589 C33.3465939,5.56064589 32.9560698,5.06096458 32.9560698,4.19290508 C32.9560698,3.3321402 33.3465939,2.82881158 34.0420987,2.82881158 C34.7338843,2.82881158 35.1281277,3.3321402 35.1281277,4.19290508 C35.1281277,5.05731727 34.7338843,5.56064589 34.0420987,5.56064589 L34.0420987,5.56064589 Z M34.0420987,6.25728188 C35.2248289,6.25728188 35.950088,5.4804051 35.950088,4.19290508 C35.950088,2.91269968 35.2211096,2.13217559 34.0420987,2.13217559 C32.8593685,2.13217559 32.1303902,2.91269968 32.1303902,4.19290508 C32.1303902,5.4804051 32.8556493,6.25728188 34.0420987,6.25728188 L34.0420987,6.25728188 Z M42.2178141,2.20876908 L41.4181694,2.20876908 L40.6966296,5.23968272 L40.6334019,5.23968272 L39.8002838,2.20876908 L39.0341127,2.20876908 L38.2009946,5.23968272 L38.1414862,5.23968272 L37.4162271,2.20876908 L36.6054246,2.20876908 L37.7212078,6.18068839 L38.5431681,6.18068839 L39.3762862,3.25554671 L39.4395139,3.25554671 L40.2763513,6.18068839 L41.1057502,6.18068839 L42.2178141,2.20876908 Z M43.2339206,6.18068839 L44.0335652,6.18068839 L44.0335652,3.85735267 C44.0335652,3.23731017 44.4278086,2.85069543 45.0712436,2.85069543 C45.666328,2.85069543 45.9564316,3.1680113 45.9564316,3.80629035 L45.9564316,6.18068839 L46.7560762,6.18068839 L46.7560762,3.60933567 C46.7560762,2.66468268 46.2465352,2.13217559 45.3427508,2.13217559 C44.7327894,2.13217559 44.2604411,2.39842914 44.0633195,2.83975351 L44.003811,2.83975351 L44.003811,2.20876908 L43.2339206,2.20876908 L43.2339206,6.18068839 Z M48.1069177,6.18068839 L48.9065623,6.18068839 L48.9065623,0.658662826 L48.1069177,0.658662826 L48.1069177,6.18068839 Z M52.0054642,5.56064589 C51.3099593,5.56064589 50.9194352,5.06096458 50.9194352,4.19290508 C50.9194352,3.3321402 51.3099593,2.82881158 52.0054642,2.82881158 C52.6972498,2.82881158 53.0914931,3.3321402 53.0914931,4.19290508 C53.0914931,5.05731727 52.6972498,5.56064589 52.0054642,5.56064589 L52.0054642,5.56064589 Z M52.0054642,6.25728188 C53.1881944,6.25728188 53.9134534,5.4804051 53.9134534,4.19290508 C53.9134534,2.91269968 53.1844751,2.13217559 52.0054642,2.13217559 C50.822734,2.13217559 50.0937556,2.91269968 50.0937556,4.19290508 C50.0937556,5.4804051 50.8190147,6.25728188 52.0054642,6.25728188 L52.0054642,6.25728188 Z M56.3875167,5.58617706 C55.9523612,5.58617706 55.6362227,5.37828045 55.6362227,5.02084419 C55.6362227,4.67070254 55.8891335,4.48468979 56.4470251,4.4482167 L57.4363529,4.38621245 L57.4363529,4.71811755 C57.4363529,5.21050425 56.9900396,5.58617706 56.3875167,5.58617706 L56.3875167,5.58617706 Z M56.1829564,6.24633995 C56.7148131,6.24633995 57.1574071,6.02020681 57.3991601,5.62265014 L57.4623878,5.62265014 L57.4623878,6.18068839 L58.2322782,6.18068839 L58.2322782,3.46709062 C58.2322782,2.62820959 57.6595095,2.13217559 56.6441468,2.13217559 C55.7254853,2.13217559 55.0708925,2.56985265 54.9890684,3.2518994 L55.7626781,3.2518994 C55.8519407,2.97105662 56.1606408,2.81057504 56.606954,2.81057504 C57.1536878,2.81057504 57.4363529,3.04765011 57.4363529,3.46709062 L57.4363529,3.80993765 L56.3391661,3.8719419 C55.3758733,3.93029885 54.8328588,4.34244474 54.8328588,5.05731727 C54.8328588,5.78313173 55.4019082,6.24633995 56.1829564,6.24633995 L56.1829564,6.24633995 Z M61.0410764,6.24633995 C61.598968,6.24633995 62.0713162,5.98738103 62.3130693,5.55335128 L62.376297,5.55335128 L62.376297,6.18068839 L63.1424681,6.18068839 L63.1424681,0.658662826 L62.3428235,0.658662826 L62.3428235,2.83975351 L62.283315,2.83975351 C62.0638777,2.40207645 61.5952487,2.14311752 61.0410764,2.14311752 C60.0182752,2.14311752 59.3599631,2.93823084 59.3599631,4.19290508 C59.3599631,5.45122663 60.0108366,6.24633995 61.0410764,6.24633995 L61.0410764,6.24633995 Z M61.2679523,2.84704812 C61.9374223,2.84704812 62.3577006,3.36861329 62.3577006,4.19655239 C62.3577006,5.0281388 61.9411415,5.54240935 61.2679523,5.54240935 C60.5910439,5.54240935 60.1856426,5.03543342 60.1856426,4.19290508 C60.1856426,3.35767136 60.5947631,2.84704812 61.2679523,2.84704812 L61.2679523,2.84704812 Z M68.5145922,5.56064589 C67.8190874,5.56064589 67.4285632,5.06096458 67.4285632,4.19290508 C67.4285632,3.3321402 67.8190874,2.82881158 68.5145922,2.82881158 C69.2063778,2.82881158 69.6006212,3.3321402 69.6006212,4.19290508 C69.6006212,5.05731727 69.2063778,5.56064589 68.5145922,5.56064589 L68.5145922,5.56064589 Z M68.5145922,6.25728188 C69.6973224,6.25728188 70.4225815,5.4804051 70.4225815,4.19290508 C70.4225815,2.91269968 69.6936031,2.13217559 68.5145922,2.13217559 C67.331862,2.13217559 66.6028837,2.91269968 66.6028837,4.19290508 C66.6028837,5.4804051 67.3281428,6.25728188 68.5145922,6.25728188 L68.5145922,6.25728188 Z M71.572582,6.18068839 L72.3722266,6.18068839 L72.3722266,3.85735267 C72.3722266,3.23731017 72.76647,2.85069543 73.409905,2.85069543 C74.0049893,2.85069543 74.295093,3.1680113 74.295093,3.80629035 L74.295093,6.18068839 L75.0947376,6.18068839 L75.0947376,3.60933567 C75.0947376,2.66468268 74.5851966,2.13217559 73.6814122,2.13217559 C73.0714507,2.13217559 72.5991025,2.39842914 72.4019808,2.83975351 L72.3424724,2.83975351 L72.3424724,2.20876908 L71.572582,2.20876908 L71.572582,6.18068839 Z M78.9642737,1.24587955 L78.9642737,2.22700562 L78.2985231,2.22700562 L78.2985231,2.88716852 L78.9642737,2.88716852 L78.9642737,5.13026345 C78.9642737,5.89619831 79.317605,6.20257225 80.2065123,6.20257225 C80.3627219,6.20257225 80.5077738,6.1843357 80.6342292,6.16245185 L80.6342292,5.50958357 C80.5226509,5.5205255 80.4594232,5.52782011 80.336687,5.52782011 C79.9387243,5.52782011 79.7639183,5.34545467 79.7639183,4.92966147 L79.7639183,2.88716852 L80.671422,2.88716852 L80.671422,2.22700562 L79.7639183,2.22700562 L79.7639183,1.24587955 L78.9642737,1.24587955 Z M81.8102647,6.18068839 L82.6099093,6.18068839 L82.6099093,3.86099998 C82.6099093,3.25919402 83.0153105,2.85434274 83.6699033,2.85434274 C84.2724262,2.85434274 84.5736877,3.17530592 84.5736877,3.80993765 L84.5736877,6.18068839 L85.3733323,6.18068839 L85.3733323,3.61663029 C85.3733323,2.6719773 84.8526335,2.1358229 83.9414106,2.1358229 C83.3314491,2.1358229 82.8628201,2.40207645 82.6656984,2.84704812 L82.6024707,2.84704812 L82.6024707,0.658662826 L81.8102647,0.658662826 L81.8102647,6.18068839 Z M88.3532173,2.79963311 C88.9445824,2.79963311 89.3313872,3.20448439 89.3499836,3.8281742 L87.3043811,3.8281742 C87.3490124,3.2081317 87.7618522,2.79963311 88.3532173,2.79963311 L88.3532173,2.79963311 Z M89.3462643,5.1083796 C89.1974932,5.41840085 88.8664775,5.58982436 88.3829715,5.58982436 C87.7432558,5.58982436 87.330416,5.1485 87.3043811,4.45186401 L87.3043811,4.4080963 L90.1645053,4.4080963 L90.1645053,4.13454814 C90.1645053,2.88716852 89.4838776,2.13217559 88.3569366,2.13217559 C87.2151184,2.13217559 86.4898594,2.93823084 86.4898594,4.20749432 C86.4898594,5.47675779 87.2002413,6.25728188 88.3606558,6.25728188 C89.2867559,6.25728188 89.9339101,5.81960482 90.1161547,5.1083796 L89.3462643,5.1083796 Z" id="Download-on-the"></path>
                                    <g id="logo_apple" transform="translate(0.685537, 0.877210)">
                                        <path d="M14.7269206,11.245932 C14.7024081,8.57437011 16.957565,7.27464656 17.0606869,7.21413647 C15.7834972,5.38805803 13.8038954,5.13855753 13.1082454,5.1186638 C11.4456165,4.9470804 9.8328581,6.09428537 8.98590634,6.09428537 C8.12204937,6.09428537 6.81781128,5.13524191 5.41214186,5.16342469 C3.60328282,5.19077857 1.91106983,6.21779226 0.982973,7.81260611 C-0.932388951,11.0644017 0.496102531,15.8430409 2.33116467,18.4714997 C3.24911836,19.7596186 4.32175487,21.1961115 5.72573377,21.1455483 C7.09928327,21.0908405 7.61235684,20.2868024 9.26991412,20.2868024 C10.9122567,20.2868024 11.3940556,21.1455483 12.8259281,21.1123921 C14.3000637,21.0908405 15.2281605,19.8201287 16.1139943,18.5204051 C17.1747972,17.0466114 17.6008088,15.5918826 17.617714,15.5172811 C17.5839036,15.5065053 14.7556595,14.4479932 14.7269206,11.245932" id="Fill-2"></path>
                                        <path d="M12.0220847,3.38956729 C12.760843,2.48357377 13.2663092,1.25099155 13.1259959,0.000173413504 C12.0567404,0.0465921118 10.7195371,0.725465574 9.94950415,1.61156537 C9.2682236,2.39239418 8.65963551,3.67222401 8.8168541,4.87579454 C10.0179703,4.96365851 11.2512064,4.28146942 12.0220847,3.38956729" id="Fill-3"></path>
                                    </g>
                                </g>
                            </g>
                        </g>
                    </g>
                </g>
            </g>
        </g>
    </g>
</svg>