<?xml version="1.0" encoding="utf-8"?>
<!-- Generator: Adobe Illustrator 19.0.0, SVG Export Plug-In . SVG Version: 6.00 Build 0)  -->
<svg version="1.1" id="Capa_1" xmlns="http://www.w3.org/2000/svg" xmlns:xlink="http://www.w3.org/1999/xlink" x="0px" y="0px"
	 viewBox="0 0 3764.1 3764.1" style="enable-background:new 0 0 3764.1 3764.1;" xml:space="preserve">
<style type="text/css">
	.st0{fill-rule:evenodd;clip-rule:evenodd;fill:#F0EFEF;}
	.st1{fill-rule:evenodd;clip-rule:evenodd;fill:#FFFFFF;}
	.st2{fill:#FFFFFF;}
	.st3{fill-rule:evenodd;clip-rule:evenodd;fill:#A3D9CD;}
	.st4{fill-rule:evenodd;clip-rule:evenodd;fill:#99C2C2;}
</style>
<g>
	<rect x="0" y="0" class="st0" width="3764.1" height="3764.1"/>
	<g>
		<polygon class="st1" points="3214,0 2516.2,1750.5 2637.5,1801.6 3355.7,0 		"/>
		<path class="st2" d="M2756.8,1665c37.5,193.9,111.8,543.2,345.4,916.6c147,234.9,357.4,480,661.9,703.6v173.1
			c-365.9-250.6-612.6-532.2-781-801.4c-247.4-395.3-325.4-761.9-364.7-965.3L2756.8,1665z"/>
		<polygon class="st1" points="3764.1,651.5 0,3686.6 0,3764.1 113.9,3764.1 3764.1,820.8 		"/>
		<rect x="2515.5" y="0" class="st1" width="131.5" height="3764.1"/>
		<rect x="0" y="1623.9" class="st1" width="3764.1" height="131.9"/>
		<path class="st1" d="M2581.2,1301c214.2,0,387.8,174.1,387.8,388.9s-173.6,388.9-387.8,388.9c-214.2,0-387.8-174.1-387.8-388.9
			S2367.1,1301,2581.2,1301z"/>
		<path class="st3" d="M2581.2,1427.8c144.3,0,261.3,117.3,261.3,262.1c0,144.7-117,262.1-261.3,262.1
			c-144.3,0-261.3-117.3-261.3-262.1C2319.9,1545.2,2436.9,1427.8,2581.2,1427.8z"/>
		<polygon class="st1" points="1772.5,2426.7 1846.4,2317.5 327.6,1646.7 253.6,1755.9 		"/>
		<polygon class="st1" points="416.9,3542.1 490.9,3432.9 0,3121.1 0,3277.2 		"/>
		<polygon class="st1" points="2580.6,1077.1 2584.4,945.2 0,428.6 0,561.3 		"/>
		<polygon class="st1" points="0,1501.7 730.3,688 680.6,565.8 0,1324.2 		"/>
		<polygon class="st1" points="234.7,1197.8 328.7,1081 0,1012.7 0,1149.1 		"/>
		<polygon class="st1" points="0,28.6 21.1,0 0,0 		"/>
		<polygon class="st1" points="0,1432.4 27.9,1397.7 0,1391.5 		"/>
		<polygon class="st1" points="1082.4,704.5 1192.2,766.4 1880,0 1714.6,0 		"/>
		<polygon class="st1" points="1018.9,1665.5 1133.1,1731.1 1214.8,737.5 1100.6,671.9 		"/>
		<polygon class="st1" points="1197.1,1176.3 1185.9,1029.3 253.9,1029.3 114.8,1176.3 		"/>
		<polygon class="st1" points="2609.1,1215.9 2625.3,1066.7 1112.7,1027.3 1096.5,1176.5 		"/>
		<polygon class="st1" points="1435.4,1717 1580,1690.8 1575,1138 1430,1180.1 		"/>
		<polygon class="st1" points="1901.5,1701.9 2046.2,1675.7 2041.2,1122.9 1896.2,1165 		"/>
		<polygon class="st1" points="1452.8,413.5 1546.8,296.6 0,35.6 0,168.3 		"/>
		<polygon class="st1" points="894.2,225.3 1032.5,275.2 1187.9,0 1021.1,0 		"/>
		<polygon class="st1" points="2611.1,3039.3 2605.5,2907.5 1277.5,2717.4 1283.1,2849.3 		"/>
		<polygon class="st1" points="2626.2,3522 2620.5,3390.1 751.1,3139.7 756.7,3271.6 		"/>
		<polygon class="st1" points="1102.6,3274.5 1268.8,3323.4 1788,2854.1 1621.8,2805.2 		"/>
		<polygon class="st1" points="3042.7,2681.2 3178.6,2743.9 3764.1,1750.9 3764.1,1721.6 3641.8,1665.2 		"/>
		<polygon class="st1" points="3221.1,3764.1 3139,2644.3 2994,2658.3 3076.2,3764.1 		"/>
		<polygon class="st1" points="3152.5,3522 3146.9,3390.1 2585.8,3411.2 2591.4,3543.1 		"/>
		<polygon class="st1" points="3107.4,2773.2 3101.8,2589.7 2555.7,2853.5 2561.3,3036.9 		"/>
		<polygon class="st1" points="1160.2,3764.1 1291.5,3310.9 1160.9,3253.7 1013,3764.1 		"/>
		<polygon class="st1" points="2605.1,2435.3 2639.6,2290 1712.6,2289.7 1693.8,2435.5 		"/>
		<polygon class="st1" points="3122.4,386.2 3130,533.5 3764.1,582.3 3764.1,448 		"/>
		<polygon class="st1" points="3418.5,453.9 3584.7,502.8 3764.1,134.5 3764.1,0 3639.6,0 		"/>
		<polygon class="st1" points="2881.8,914.2 2889.4,1061.4 3436.6,1036.2 3548.8,916.8 		"/>
		<polygon class="st3" points="1281.9,2822.2 1533.4,2885.1 1187,3198.1 868.7,3155.5 		"/>
		<polygon class="st3" points="292,1176.3 0,1501.7 0,1623.9 1022.3,1623.9 1059.8,1168.7 		"/>
		<polygon class="st4" points="1575.5,1189 1579.4,1623.9 1900.8,1623.9 1896.5,1197.4 		"/>
		<polygon class="st4" points="3355.7,0 3198.8,393.6 3436.7,416.5 3639.6,0 		"/>
		<polygon class="st4" points="580.5,677.4 412.1,865 0,779.5 0,763.2 129.8,587.3 		"/>
		<polygon class="st1" points="3764.1,2258.5 3451.6,2075.6 3387.8,2191.1 3764.1,2411.3 		"/>
		<polygon class="st1" points="3482.9,3197.8 3592.8,3270.3 3764.1,2945.2 3764.1,2663.8 		"/>
		<polygon class="st1" points="3764.1,2806.9 3733.2,2854.4 3764.1,2875.5 		"/>
		<path class="st3" d="M3764.1,2945.2l-127,241.3c0,0,51.4,42.7,95.8,75.6c10.1,7.5,20.8,15.3,31.3,22.9V2945.2z"/>
		<polygon class="st4" points="1267.9,682.1 1564,352.1 2099.6,454.8 1898.8,808.2 		"/>
		<polygon class="st4" points="2513.7,1063.8 1190.8,1029.3 1209.4,803.1 		"/>
	</g>
</g>
</svg>
